solid Default
  facet normal 9.914449e-01 1.305262e-01 -1.214170e-16
    outer loop
      vertex 3.330963e+01 -4.529343e-01 3.552714e-15
      vertex 3.325000e+01 0.000000e+00 5.000000e+00
      vertex 3.330963e+01 -4.529343e-01 5.000000e+00
    endloop
  endfacet
  facet normal 9.914449e-01 1.305262e-01 -1.214170e-16
    outer loop
      vertex 3.325000e+01 0.000000e+00 5.000000e+00
      vertex 3.330963e+01 -4.529343e-01 3.552714e-15
      vertex 3.325000e+01 0.000000e+00 3.552714e-15
    endloop
  endfacet
  facet normal -6.087614e-01 7.933533e-01 7.455178e-17
    outer loop
      vertex 3.587500e+01 -1.515549e+00 0.000000e+00
      vertex 3.623743e+01 -1.237442e+00 5.000000e+00
      vertex 3.623743e+01 -1.237442e+00 0.000000e+00
    endloop
  endfacet
  facet normal -6.087614e-01 7.933533e-01 7.455178e-17
    outer loop
      vertex 3.623743e+01 -1.237442e+00 5.000000e+00
      vertex 3.587500e+01 -1.515549e+00 0.000000e+00
      vertex 3.587500e+01 -1.515549e+00 5.000000e+00
    endloop
  endfacet
  facet normal 6.123234e-17 1.000000e+00 -7.498799e-33
    outer loop
      vertex 4.000000e+01 5.000000e+00 0.000000e+00
      vertex 3.000000e+01 5.000000e+00 2.500000e+00
      vertex 4.000000e+01 5.000000e+00 5.000000e+00
    endloop
  endfacet
  facet normal 6.123234e-17 1.000000e+00 -7.498799e-33
    outer loop
      vertex 3.000000e+01 5.000000e+00 2.500000e+00
      vertex 4.000000e+01 5.000000e+00 0.000000e+00
      vertex -4.000000e+01 5.000000e+00 1.065814e-14
    endloop
  endfacet
  facet normal 6.123234e-17 1.000000e+00 -7.498799e-33
    outer loop
      vertex 4.000000e+01 5.000000e+00 5.000000e+00
      vertex 3.000000e+01 5.000000e+00 2.500000e+00
      vertex 3.000000e+01 5.000000e+00 5.000000e+00
    endloop
  endfacet
  facet normal 6.123234e-17 1.000000e+00 -7.498799e-33
    outer loop
      vertex 3.000000e+01 5.000000e+00 2.500000e+00
      vertex -4.000000e+01 5.000000e+00 1.065814e-14
      vertex -3.000000e+01 5.000000e+00 2.500000e+00
    endloop
  endfacet
  facet normal 6.123234e-17 1.000000e+00 -7.498799e-33
    outer loop
      vertex -3.000000e+01 5.000000e+00 2.500000e+00
      vertex -4.000000e+01 5.000000e+00 1.065814e-14
      vertex -3.000000e+01 5.000000e+00 5.000000e+00
    endloop
  endfacet
  facet normal 6.123234e-17 1.000000e+00 -7.498799e-33
    outer loop
      vertex -3.000000e+01 5.000000e+00 5.000000e+00
      vertex -4.000000e+01 5.000000e+00 1.065814e-14
      vertex -4.000000e+01 5.000000e+00 5.000000e+00
    endloop
  endfacet
  facet normal 1.000000e+00 -6.123234e-17 -1.224647e-16
    outer loop
      vertex 4.000000e+01 -5.000000e+00 5.000000e+00
      vertex 4.000000e+01 5.000000e+00 0.000000e+00
      vertex 4.000000e+01 5.000000e+00 5.000000e+00
    endloop
  endfacet
  facet normal 1.000000e+00 -6.123234e-17 -1.224647e-16
    outer loop
      vertex 4.000000e+01 5.000000e+00 0.000000e+00
      vertex 4.000000e+01 -5.000000e+00 5.000000e+00
      vertex 4.000000e+01 -5.000000e+00 0.000000e+00
    endloop
  endfacet
  facet normal -9.238795e-01 -3.826834e-01 1.131426e-16
    outer loop
      vertex 3.651556e+01 8.750000e-01 0.000000e+00
      vertex 3.669037e+01 4.529343e-01 5.000000e+00
      vertex 3.651556e+01 8.750000e-01 5.000000e+00
    endloop
  endfacet
  facet normal -9.238795e-01 -3.826834e-01 1.131426e-16
    outer loop
      vertex 3.669037e+01 4.529343e-01 5.000000e+00
      vertex 3.651556e+01 8.750000e-01 0.000000e+00
      vertex 3.669037e+01 4.529343e-01 0.000000e+00
    endloop
  endfacet
  facet normal 1.305262e-01 9.914449e-01 -1.598485e-17
    outer loop
      vertex 3.454706e+01 -1.690369e+00 0.000000e+00
      vertex 3.500000e+01 -1.750000e+00 5.000000e+00
      vertex 3.500000e+01 -1.750000e+00 0.000000e+00
    endloop
  endfacet
  facet normal 1.305262e-01 9.914449e-01 -1.598485e-17
    outer loop
      vertex 3.500000e+01 -1.750000e+00 5.000000e+00
      vertex 3.454706e+01 -1.690369e+00 0.000000e+00
      vertex 3.454706e+01 -1.690369e+00 5.000000e+00
    endloop
  endfacet
  facet normal -9.914449e-01 1.305262e-01 1.214170e-16
    outer loop
      vertex 3.675000e+01 0.000000e+00 0.000000e+00
      vertex 3.669037e+01 -4.529343e-01 5.000000e+00
      vertex 3.675000e+01 0.000000e+00 5.000000e+00
    endloop
  endfacet
  facet normal -9.914449e-01 1.305262e-01 1.214170e-16
    outer loop
      vertex 3.669037e+01 -4.529343e-01 5.000000e+00
      vertex 3.675000e+01 0.000000e+00 0.000000e+00
      vertex 3.669037e+01 -4.529343e-01 0.000000e+00
    endloop
  endfacet
  facet normal 3.826834e-01 -9.238795e-01 -4.686520e-17
    outer loop
      vertex 3.412500e+01 1.515541e+00 5.000000e+00
      vertex 3.454706e+01 1.690369e+00 0.000000e+00
      vertex 3.454706e+01 1.690369e+00 5.000000e+00
    endloop
  endfacet
  facet normal 3.826834e-01 -9.238795e-01 -4.686520e-17
    outer loop
      vertex 3.454706e+01 1.690369e+00 0.000000e+00
      vertex 3.412500e+01 1.515541e+00 5.000000e+00
      vertex 3.412500e+01 1.515541e+00 3.552714e-15
    endloop
  endfacet
  facet normal 6.087614e-01 7.933533e-01 -7.455178e-17
    outer loop
      vertex 3.376257e+01 -1.237442e+00 3.552714e-15
      vertex 3.412500e+01 -1.515549e+00 5.000000e+00
      vertex 3.412500e+01 -1.515549e+00 3.552714e-15
    endloop
  endfacet
  facet normal 6.087614e-01 7.933533e-01 -7.455178e-17
    outer loop
      vertex 3.412500e+01 -1.515549e+00 5.000000e+00
      vertex 3.376257e+01 -1.237442e+00 3.552714e-15
      vertex 3.376257e+01 -1.237442e+00 5.000000e+00
    endloop
  endfacet
  facet normal 9.238795e-01 3.826834e-01 -1.131426e-16
    outer loop
      vertex 3.348444e+01 -8.750000e-01 3.552714e-15
      vertex 3.330963e+01 -4.529343e-01 5.000000e+00
      vertex 3.348444e+01 -8.750000e-01 5.000000e+00
    endloop
  endfacet
  facet normal 9.238795e-01 3.826834e-01 -1.131426e-16
    outer loop
      vertex 3.330963e+01 -4.529343e-01 5.000000e+00
      vertex 3.348444e+01 -8.750000e-01 3.552714e-15
      vertex 3.330963e+01 -4.529343e-01 3.552714e-15
    endloop
  endfacet
  facet normal 6.087614e-01 -7.933533e-01 -7.455178e-17
    outer loop
      vertex 3.376257e+01 1.237434e+00 5.000000e+00
      vertex 3.412500e+01 1.515541e+00 3.552714e-15
      vertex 3.412500e+01 1.515541e+00 5.000000e+00
    endloop
  endfacet
  facet normal 6.087614e-01 -7.933533e-01 -7.455178e-17
    outer loop
      vertex 3.412500e+01 1.515541e+00 3.552714e-15
      vertex 3.376257e+01 1.237434e+00 5.000000e+00
      vertex 3.376257e+01 1.237434e+00 3.552714e-15
    endloop
  endfacet
  facet normal -3.826834e-01 9.238795e-01 4.686520e-17
    outer loop
      vertex 3.545294e+01 -1.690369e+00 0.000000e+00
      vertex 3.587500e+01 -1.515549e+00 5.000000e+00
      vertex 3.587500e+01 -1.515549e+00 0.000000e+00
    endloop
  endfacet
  facet normal -3.826834e-01 9.238795e-01 4.686520e-17
    outer loop
      vertex 3.587500e+01 -1.515549e+00 5.000000e+00
      vertex 3.545294e+01 -1.690369e+00 0.000000e+00
      vertex 3.545294e+01 -1.690369e+00 5.000000e+00
    endloop
  endfacet
  facet normal -9.238795e-01 3.826834e-01 1.131426e-16
    outer loop
      vertex 3.669037e+01 -4.529343e-01 0.000000e+00
      vertex 3.651556e+01 -8.750000e-01 5.000000e+00
      vertex 3.669037e+01 -4.529343e-01 5.000000e+00
    endloop
  endfacet
  facet normal -9.238795e-01 3.826834e-01 1.131426e-16
    outer loop
      vertex 3.651556e+01 -8.750000e-01 5.000000e+00
      vertex 3.669037e+01 -4.529343e-01 0.000000e+00
      vertex 3.651556e+01 -8.750000e-01 0.000000e+00
    endloop
  endfacet
  facet normal -9.914449e-01 -1.305262e-01 1.214170e-16
    outer loop
      vertex 3.669037e+01 4.529343e-01 0.000000e+00
      vertex 3.675000e+01 0.000000e+00 5.000000e+00
      vertex 3.669037e+01 4.529343e-01 5.000000e+00
    endloop
  endfacet
  facet normal -9.914449e-01 -1.305262e-01 1.214170e-16
    outer loop
      vertex 3.675000e+01 0.000000e+00 5.000000e+00
      vertex 3.669037e+01 4.529343e-01 0.000000e+00
      vertex 3.675000e+01 0.000000e+00 0.000000e+00
    endloop
  endfacet
  facet normal 7.933533e-01 -6.087614e-01 -9.715776e-17
    outer loop
      vertex 3.348444e+01 8.750000e-01 3.552714e-15
      vertex 3.376257e+01 1.237434e+00 5.000000e+00
      vertex 3.348444e+01 8.750000e-01 5.000000e+00
    endloop
  endfacet
  facet normal 7.933533e-01 -6.087614e-01 -9.715776e-17
    outer loop
      vertex 3.376257e+01 1.237434e+00 5.000000e+00
      vertex 3.348444e+01 8.750000e-01 3.552714e-15
      vertex 3.376257e+01 1.237434e+00 3.552714e-15
    endloop
  endfacet
  facet normal -7.933533e-01 6.087614e-01 9.715776e-17
    outer loop
      vertex 3.651556e+01 -8.750000e-01 0.000000e+00
      vertex 3.623743e+01 -1.237442e+00 5.000000e+00
      vertex 3.651556e+01 -8.750000e-01 5.000000e+00
    endloop
  endfacet
  facet normal -7.933533e-01 6.087614e-01 9.715776e-17
    outer loop
      vertex 3.623743e+01 -1.237442e+00 5.000000e+00
      vertex 3.651556e+01 -8.750000e-01 0.000000e+00
      vertex 3.623743e+01 -1.237442e+00 0.000000e+00
    endloop
  endfacet
  facet normal -1.305262e-01 9.914449e-01 1.598485e-17
    outer loop
      vertex 3.500000e+01 -1.750000e+00 0.000000e+00
      vertex 3.545294e+01 -1.690369e+00 5.000000e+00
      vertex 3.545294e+01 -1.690369e+00 0.000000e+00
    endloop
  endfacet
  facet normal -1.305262e-01 9.914449e-01 1.598485e-17
    outer loop
      vertex 3.545294e+01 -1.690369e+00 5.000000e+00
      vertex 3.500000e+01 -1.750000e+00 0.000000e+00
      vertex 3.500000e+01 -1.750000e+00 5.000000e+00
    endloop
  endfacet
  facet normal 9.914449e-01 -1.305262e-01 -1.214170e-16
    outer loop
      vertex 3.325000e+01 0.000000e+00 3.552714e-15
      vertex 3.330963e+01 4.529343e-01 5.000000e+00
      vertex 3.325000e+01 0.000000e+00 5.000000e+00
    endloop
  endfacet
  facet normal 9.914449e-01 -1.305262e-01 -1.214170e-16
    outer loop
      vertex 3.330963e+01 4.529343e-01 5.000000e+00
      vertex 3.325000e+01 0.000000e+00 3.552714e-15
      vertex 3.330963e+01 4.529343e-01 3.552714e-15
    endloop
  endfacet
  facet normal 9.238795e-01 -3.826834e-01 -1.131426e-16
    outer loop
      vertex 3.330963e+01 4.529343e-01 3.552714e-15
      vertex 3.348444e+01 8.750000e-01 5.000000e+00
      vertex 3.330963e+01 4.529343e-01 5.000000e+00
    endloop
  endfacet
  facet normal 9.238795e-01 -3.826834e-01 -1.131426e-16
    outer loop
      vertex 3.348444e+01 8.750000e-01 5.000000e+00
      vertex 3.330963e+01 4.529343e-01 3.552714e-15
      vertex 3.348444e+01 8.750000e-01 3.552714e-15
    endloop
  endfacet
  facet normal 7.933533e-01 6.087614e-01 -9.715776e-17
    outer loop
      vertex 3.376257e+01 -1.237442e+00 3.552714e-15
      vertex 3.348444e+01 -8.750000e-01 5.000000e+00
      vertex 3.376257e+01 -1.237442e+00 5.000000e+00
    endloop
  endfacet
  facet normal 7.933533e-01 6.087614e-01 -9.715776e-17
    outer loop
      vertex 3.348444e+01 -8.750000e-01 5.000000e+00
      vertex 3.376257e+01 -1.237442e+00 3.552714e-15
      vertex 3.348444e+01 -8.750000e-01 3.552714e-15
    endloop
  endfacet
  facet normal 9.238795e-01 -3.826834e-01 -1.131426e-16
    outer loop
      vertex -3.669037e+01 4.529343e-01 1.065814e-14
      vertex -3.651556e+01 8.750000e-01 5.000000e+00
      vertex -3.669037e+01 4.529343e-01 5.000000e+00
    endloop
  endfacet
  facet normal 9.238795e-01 -3.826834e-01 -1.131426e-16
    outer loop
      vertex -3.651556e+01 8.750000e-01 5.000000e+00
      vertex -3.669037e+01 4.529343e-01 1.065814e-14
      vertex -3.651556e+01 8.750000e-01 1.065814e-14
    endloop
  endfacet
  facet normal 1.305262e-01 9.914449e-01 -1.598485e-17
    outer loop
      vertex -3.545294e+01 -1.690369e+00 1.065814e-14
      vertex -3.500000e+01 -1.750000e+00 5.000000e+00
      vertex -3.500000e+01 -1.750000e+00 1.065814e-14
    endloop
  endfacet
  facet normal 1.305262e-01 9.914449e-01 -1.598485e-17
    outer loop
      vertex -3.500000e+01 -1.750000e+00 5.000000e+00
      vertex -3.545294e+01 -1.690369e+00 1.065814e-14
      vertex -3.545294e+01 -1.690369e+00 5.000000e+00
    endloop
  endfacet
  facet normal 3.826834e-01 -9.238795e-01 -4.686520e-17
    outer loop
      vertex -3.587500e+01 1.515541e+00 5.000000e+00
      vertex -3.545294e+01 1.690369e+00 1.065814e-14
      vertex -3.545294e+01 1.690369e+00 5.000000e+00
    endloop
  endfacet
  facet normal 3.826834e-01 -9.238795e-01 -4.686520e-17
    outer loop
      vertex -3.545294e+01 1.690369e+00 1.065814e-14
      vertex -3.587500e+01 1.515541e+00 5.000000e+00
      vertex -3.587500e+01 1.515541e+00 1.065814e-14
    endloop
  endfacet
  facet normal 6.087614e-01 -7.933533e-01 -7.455178e-17
    outer loop
      vertex -3.623743e+01 1.237434e+00 5.000000e+00
      vertex -3.587500e+01 1.515541e+00 1.065814e-14
      vertex -3.587500e+01 1.515541e+00 5.000000e+00
    endloop
  endfacet
  facet normal 6.087614e-01 -7.933533e-01 -7.455178e-17
    outer loop
      vertex -3.587500e+01 1.515541e+00 1.065814e-14
      vertex -3.623743e+01 1.237434e+00 5.000000e+00
      vertex -3.623743e+01 1.237434e+00 1.065814e-14
    endloop
  endfacet
  facet normal 3.826834e-01 9.238795e-01 -4.686520e-17
    outer loop
      vertex 3.412500e+01 -1.515549e+00 3.552714e-15
      vertex 3.454706e+01 -1.690369e+00 5.000000e+00
      vertex 3.454706e+01 -1.690369e+00 0.000000e+00
    endloop
  endfacet
  facet normal 3.826834e-01 9.238795e-01 -4.686520e-17
    outer loop
      vertex 3.454706e+01 -1.690369e+00 5.000000e+00
      vertex 3.412500e+01 -1.515549e+00 3.552714e-15
      vertex 3.412500e+01 -1.515549e+00 5.000000e+00
    endloop
  endfacet
  facet normal 9.914449e-01 1.305262e-01 -1.214170e-16
    outer loop
      vertex -3.669037e+01 -4.529343e-01 1.065814e-14
      vertex -3.675000e+01 1.421085e-14 5.000000e+00
      vertex -3.669037e+01 -4.529343e-01 5.000000e+00
    endloop
  endfacet
  facet normal 9.914449e-01 1.305262e-01 -1.214170e-16
    outer loop
      vertex -3.675000e+01 1.421085e-14 5.000000e+00
      vertex -3.669037e+01 -4.529343e-01 1.065814e-14
      vertex -3.675000e+01 1.421085e-14 1.065814e-14
    endloop
  endfacet
  facet normal -1.305262e-01 -9.914449e-01 1.598485e-17
    outer loop
      vertex -3.500000e+01 1.750000e+00 5.000000e+00
      vertex -3.454706e+01 1.690369e+00 1.065814e-14
      vertex -3.454706e+01 1.690369e+00 5.000000e+00
    endloop
  endfacet
  facet normal -1.305262e-01 -9.914449e-01 1.598485e-17
    outer loop
      vertex -3.454706e+01 1.690369e+00 1.065814e-14
      vertex -3.500000e+01 1.750000e+00 5.000000e+00
      vertex -3.500000e+01 1.750000e+00 1.065814e-14
    endloop
  endfacet
  facet normal -9.914449e-01 -1.305262e-01 1.214170e-16
    outer loop
      vertex -3.330963e+01 4.529343e-01 1.065814e-14
      vertex -3.325000e+01 1.421085e-14 5.000000e+00
      vertex -3.330963e+01 4.529343e-01 5.000000e+00
    endloop
  endfacet
  facet normal -9.914449e-01 -1.305262e-01 1.214170e-16
    outer loop
      vertex -3.325000e+01 1.421085e-14 5.000000e+00
      vertex -3.330963e+01 4.529343e-01 1.065814e-14
      vertex -3.325000e+01 1.421085e-14 1.065814e-14
    endloop
  endfacet
  facet normal 9.914449e-01 -1.305262e-01 -1.214170e-16
    outer loop
      vertex -3.675000e+01 1.421085e-14 1.065814e-14
      vertex -3.669037e+01 4.529343e-01 5.000000e+00
      vertex -3.675000e+01 1.421085e-14 5.000000e+00
    endloop
  endfacet
  facet normal 9.914449e-01 -1.305262e-01 -1.214170e-16
    outer loop
      vertex -3.669037e+01 4.529343e-01 5.000000e+00
      vertex -3.675000e+01 1.421085e-14 1.065814e-14
      vertex -3.669037e+01 4.529343e-01 1.065814e-14
    endloop
  endfacet
  facet normal -3.826834e-01 -9.238795e-01 4.686520e-17
    outer loop
      vertex -3.454706e+01 1.690369e+00 5.000000e+00
      vertex -3.412500e+01 1.515541e+00 1.065814e-14
      vertex -3.412500e+01 1.515541e+00 5.000000e+00
    endloop
  endfacet
  facet normal -3.826834e-01 -9.238795e-01 4.686520e-17
    outer loop
      vertex -3.412500e+01 1.515541e+00 1.065814e-14
      vertex -3.454706e+01 1.690369e+00 5.000000e+00
      vertex -3.454706e+01 1.690369e+00 1.065814e-14
    endloop
  endfacet
  facet normal -9.238795e-01 3.826834e-01 1.131426e-16
    outer loop
      vertex -3.330963e+01 -4.529343e-01 1.065814e-14
      vertex -3.348444e+01 -8.750000e-01 5.000000e+00
      vertex -3.330963e+01 -4.529343e-01 5.000000e+00
    endloop
  endfacet
  facet normal -9.238795e-01 3.826834e-01 1.131426e-16
    outer loop
      vertex -3.348444e+01 -8.750000e-01 5.000000e+00
      vertex -3.330963e+01 -4.529343e-01 1.065814e-14
      vertex -3.348444e+01 -8.750000e-01 1.065814e-14
    endloop
  endfacet
  facet normal -6.087614e-01 -7.933533e-01 7.455178e-17
    outer loop
      vertex -3.412500e+01 1.515541e+00 5.000000e+00
      vertex -3.376257e+01 1.237434e+00 1.065814e-14
      vertex -3.376257e+01 1.237434e+00 5.000000e+00
    endloop
  endfacet
  facet normal -6.087614e-01 -7.933533e-01 7.455178e-17
    outer loop
      vertex -3.376257e+01 1.237434e+00 1.065814e-14
      vertex -3.412500e+01 1.515541e+00 5.000000e+00
      vertex -3.412500e+01 1.515541e+00 1.065814e-14
    endloop
  endfacet
  facet normal -1.305262e-01 9.914449e-01 1.598485e-17
    outer loop
      vertex -3.500000e+01 -1.750000e+00 1.065814e-14
      vertex -3.454706e+01 -1.690369e+00 5.000000e+00
      vertex -3.454706e+01 -1.690369e+00 1.065814e-14
    endloop
  endfacet
  facet normal -1.305262e-01 9.914449e-01 1.598485e-17
    outer loop
      vertex -3.454706e+01 -1.690369e+00 5.000000e+00
      vertex -3.500000e+01 -1.750000e+00 1.065814e-14
      vertex -3.500000e+01 -1.750000e+00 5.000000e+00
    endloop
  endfacet
  facet normal 7.933533e-01 6.087614e-01 -9.715776e-17
    outer loop
      vertex -3.623743e+01 -1.237442e+00 1.065814e-14
      vertex -3.651556e+01 -8.750000e-01 5.000000e+00
      vertex -3.623743e+01 -1.237442e+00 5.000000e+00
    endloop
  endfacet
  facet normal 7.933533e-01 6.087614e-01 -9.715776e-17
    outer loop
      vertex -3.651556e+01 -8.750000e-01 5.000000e+00
      vertex -3.623743e+01 -1.237442e+00 1.065814e-14
      vertex -3.651556e+01 -8.750000e-01 1.065814e-14
    endloop
  endfacet
  facet normal 1.305262e-01 -9.914449e-01 -1.598485e-17
    outer loop
      vertex -3.545294e+01 1.690369e+00 5.000000e+00
      vertex -3.500000e+01 1.750000e+00 1.065814e-14
      vertex -3.500000e+01 1.750000e+00 5.000000e+00
    endloop
  endfacet
  facet normal 1.305262e-01 -9.914449e-01 -1.598485e-17
    outer loop
      vertex -3.500000e+01 1.750000e+00 1.065814e-14
      vertex -3.545294e+01 1.690369e+00 5.000000e+00
      vertex -3.545294e+01 1.690369e+00 1.065814e-14
    endloop
  endfacet
  facet normal -7.933533e-01 6.087614e-01 9.715776e-17
    outer loop
      vertex -3.348444e+01 -8.750000e-01 1.065814e-14
      vertex -3.376257e+01 -1.237442e+00 5.000000e+00
      vertex -3.348444e+01 -8.750000e-01 5.000000e+00
    endloop
  endfacet
  facet normal -7.933533e-01 6.087614e-01 9.715776e-17
    outer loop
      vertex -3.376257e+01 -1.237442e+00 5.000000e+00
      vertex -3.348444e+01 -8.750000e-01 1.065814e-14
      vertex -3.376257e+01 -1.237442e+00 1.065814e-14
    endloop
  endfacet
  facet normal -7.933533e-01 -6.087614e-01 9.715776e-17
    outer loop
      vertex -3.376257e+01 1.237434e+00 1.065814e-14
      vertex -3.348444e+01 8.750000e-01 5.000000e+00
      vertex -3.376257e+01 1.237434e+00 5.000000e+00
    endloop
  endfacet
  facet normal -7.933533e-01 -6.087614e-01 9.715776e-17
    outer loop
      vertex -3.348444e+01 8.750000e-01 5.000000e+00
      vertex -3.376257e+01 1.237434e+00 1.065814e-14
      vertex -3.348444e+01 8.750000e-01 1.065814e-14
    endloop
  endfacet
  facet normal 3.826834e-01 9.238795e-01 -4.686520e-17
    outer loop
      vertex -3.587500e+01 -1.515549e+00 1.065814e-14
      vertex -3.545294e+01 -1.690369e+00 5.000000e+00
      vertex -3.545294e+01 -1.690369e+00 1.065814e-14
    endloop
  endfacet
  facet normal 3.826834e-01 9.238795e-01 -4.686520e-17
    outer loop
      vertex -3.545294e+01 -1.690369e+00 5.000000e+00
      vertex -3.587500e+01 -1.515549e+00 1.065814e-14
      vertex -3.587500e+01 -1.515549e+00 5.000000e+00
    endloop
  endfacet
  facet normal -6.087614e-01 7.933533e-01 7.455178e-17
    outer loop
      vertex -3.412500e+01 -1.515549e+00 1.065814e-14
      vertex -3.376257e+01 -1.237442e+00 5.000000e+00
      vertex -3.376257e+01 -1.237442e+00 1.065814e-14
    endloop
  endfacet
  facet normal -6.087614e-01 7.933533e-01 7.455178e-17
    outer loop
      vertex -3.376257e+01 -1.237442e+00 5.000000e+00
      vertex -3.412500e+01 -1.515549e+00 1.065814e-14
      vertex -3.412500e+01 -1.515549e+00 5.000000e+00
    endloop
  endfacet
  facet normal 6.087614e-01 7.933533e-01 -7.455178e-17
    outer loop
      vertex -3.623743e+01 -1.237442e+00 1.065814e-14
      vertex -3.587500e+01 -1.515549e+00 5.000000e+00
      vertex -3.587500e+01 -1.515549e+00 1.065814e-14
    endloop
  endfacet
  facet normal 6.087614e-01 7.933533e-01 -7.455178e-17
    outer loop
      vertex -3.587500e+01 -1.515549e+00 5.000000e+00
      vertex -3.623743e+01 -1.237442e+00 1.065814e-14
      vertex -3.623743e+01 -1.237442e+00 5.000000e+00
    endloop
  endfacet
  facet normal -9.238795e-01 -3.826834e-01 1.131426e-16
    outer loop
      vertex -3.348444e+01 8.750000e-01 1.065814e-14
      vertex -3.330963e+01 4.529343e-01 5.000000e+00
      vertex -3.348444e+01 8.750000e-01 5.000000e+00
    endloop
  endfacet
  facet normal -9.238795e-01 -3.826834e-01 1.131426e-16
    outer loop
      vertex -3.330963e+01 4.529343e-01 5.000000e+00
      vertex -3.348444e+01 8.750000e-01 1.065814e-14
      vertex -3.330963e+01 4.529343e-01 1.065814e-14
    endloop
  endfacet
  facet normal 9.238795e-01 3.826834e-01 -1.131426e-16
    outer loop
      vertex -3.651556e+01 -8.750000e-01 1.065814e-14
      vertex -3.669037e+01 -4.529343e-01 5.000000e+00
      vertex -3.651556e+01 -8.750000e-01 5.000000e+00
    endloop
  endfacet
  facet normal 9.238795e-01 3.826834e-01 -1.131426e-16
    outer loop
      vertex -3.669037e+01 -4.529343e-01 5.000000e+00
      vertex -3.651556e+01 -8.750000e-01 1.065814e-14
      vertex -3.669037e+01 -4.529343e-01 1.065814e-14
    endloop
  endfacet
  facet normal 7.933533e-01 -6.087614e-01 -9.715776e-17
    outer loop
      vertex -3.651556e+01 8.750000e-01 1.065814e-14
      vertex -3.623743e+01 1.237434e+00 5.000000e+00
      vertex -3.651556e+01 8.750000e-01 5.000000e+00
    endloop
  endfacet
  facet normal 7.933533e-01 -6.087614e-01 -9.715776e-17
    outer loop
      vertex -3.623743e+01 1.237434e+00 5.000000e+00
      vertex -3.651556e+01 8.750000e-01 1.065814e-14
      vertex -3.623743e+01 1.237434e+00 1.065814e-14
    endloop
  endfacet
  facet normal -5.941591e-15 -2.310117e-15 1.000000e+00
    outer loop
      vertex 3.000000e+01 5.000000e+00 5.000000e+00
      vertex 3.412500e+01 1.515541e+00 5.000000e+00
      vertex 4.000000e+01 5.000000e+00 5.000000e+00
    endloop
  endfacet
  facet normal -5.941591e-15 -2.310117e-15 1.000000e+00
    outer loop
      vertex 3.412500e+01 1.515541e+00 5.000000e+00
      vertex 3.000000e+01 5.000000e+00 5.000000e+00
      vertex 3.376257e+01 1.237434e+00 5.000000e+00
    endloop
  endfacet
  facet normal -5.941591e-15 -2.310117e-15 1.000000e+00
    outer loop
      vertex 3.376257e+01 1.237434e+00 5.000000e+00
      vertex 3.000000e+01 5.000000e+00 5.000000e+00
      vertex 3.348444e+01 8.750000e-01 5.000000e+00
    endloop
  endfacet
  facet normal -5.941591e-15 -2.310117e-15 1.000000e+00
    outer loop
      vertex 3.348444e+01 8.750000e-01 5.000000e+00
      vertex 3.000000e+01 5.000000e+00 5.000000e+00
      vertex 3.000000e+01 -5.000000e+00 5.000000e+00
    endloop
  endfacet
  facet normal -5.941591e-15 -2.310117e-15 1.000000e+00
    outer loop
      vertex 4.000000e+01 5.000000e+00 5.000000e+00
      vertex 3.412500e+01 1.515541e+00 5.000000e+00
      vertex 3.454706e+01 1.690369e+00 5.000000e+00
    endloop
  endfacet
  facet normal -5.941591e-15 -2.310117e-15 1.000000e+00
    outer loop
      vertex 4.000000e+01 5.000000e+00 5.000000e+00
      vertex 3.454706e+01 1.690369e+00 5.000000e+00
      vertex 3.500000e+01 1.750000e+00 5.000000e+00
    endloop
  endfacet
  facet normal -5.941591e-15 -2.310117e-15 1.000000e+00
    outer loop
      vertex 3.348444e+01 8.750000e-01 5.000000e+00
      vertex 3.000000e+01 -5.000000e+00 5.000000e+00
      vertex 3.330963e+01 4.529343e-01 5.000000e+00
    endloop
  endfacet
  facet normal -5.941591e-15 -2.310117e-15 1.000000e+00
    outer loop
      vertex 3.330963e+01 4.529343e-01 5.000000e+00
      vertex 3.000000e+01 -5.000000e+00 5.000000e+00
      vertex 3.325000e+01 0.000000e+00 5.000000e+00
    endloop
  endfacet
  facet normal -5.941591e-15 -2.310117e-15 1.000000e+00
    outer loop
      vertex 3.325000e+01 0.000000e+00 5.000000e+00
      vertex 3.000000e+01 -5.000000e+00 5.000000e+00
      vertex 3.330963e+01 -4.529343e-01 5.000000e+00
    endloop
  endfacet
  facet normal -5.941591e-15 -2.310117e-15 1.000000e+00
    outer loop
      vertex 3.330963e+01 -4.529343e-01 5.000000e+00
      vertex 3.000000e+01 -5.000000e+00 5.000000e+00
      vertex 3.348444e+01 -8.750000e-01 5.000000e+00
    endloop
  endfacet
  facet normal -5.941591e-15 -2.310117e-15 1.000000e+00
    outer loop
      vertex 3.348444e+01 -8.750000e-01 5.000000e+00
      vertex 3.000000e+01 -5.000000e+00 5.000000e+00
      vertex 3.376257e+01 -1.237442e+00 5.000000e+00
    endloop
  endfacet
  facet normal -5.941591e-15 -2.310117e-15 1.000000e+00
    outer loop
      vertex 3.376257e+01 -1.237442e+00 5.000000e+00
      vertex 3.000000e+01 -5.000000e+00 5.000000e+00
      vertex 3.412500e+01 -1.515549e+00 5.000000e+00
    endloop
  endfacet
  facet normal -5.941591e-15 -2.310117e-15 1.000000e+00
    outer loop
      vertex 3.412500e+01 -1.515549e+00 5.000000e+00
      vertex 3.000000e+01 -5.000000e+00 5.000000e+00
      vertex 3.454706e+01 -1.690369e+00 5.000000e+00
    endloop
  endfacet
  facet normal -5.941591e-15 -2.310117e-15 1.000000e+00
    outer loop
      vertex 3.454706e+01 -1.690369e+00 5.000000e+00
      vertex 3.000000e+01 -5.000000e+00 5.000000e+00
      vertex 3.500000e+01 -1.750000e+00 5.000000e+00
    endloop
  endfacet
  facet normal -5.941591e-15 -2.310117e-15 1.000000e+00
    outer loop
      vertex 4.000000e+01 5.000000e+00 5.000000e+00
      vertex 3.651556e+01 8.750000e-01 5.000000e+00
      vertex 4.000000e+01 -5.000000e+00 5.000000e+00
    endloop
  endfacet
  facet normal -5.941591e-15 -2.310117e-15 1.000000e+00
    outer loop
      vertex 3.651556e+01 8.750000e-01 5.000000e+00
      vertex 4.000000e+01 5.000000e+00 5.000000e+00
      vertex 3.623743e+01 1.237434e+00 5.000000e+00
    endloop
  endfacet
  facet normal -5.941591e-15 -2.310117e-15 1.000000e+00
    outer loop
      vertex 3.623743e+01 1.237434e+00 5.000000e+00
      vertex 4.000000e+01 5.000000e+00 5.000000e+00
      vertex 3.587500e+01 1.515541e+00 5.000000e+00
    endloop
  endfacet
  facet normal -5.941591e-15 -2.310117e-15 1.000000e+00
    outer loop
      vertex 3.587500e+01 1.515541e+00 5.000000e+00
      vertex 4.000000e+01 5.000000e+00 5.000000e+00
      vertex 3.545294e+01 1.690369e+00 5.000000e+00
    endloop
  endfacet
  facet normal -5.941591e-15 -2.310117e-15 1.000000e+00
    outer loop
      vertex 3.545294e+01 1.690369e+00 5.000000e+00
      vertex 4.000000e+01 5.000000e+00 5.000000e+00
      vertex 3.500000e+01 1.750000e+00 5.000000e+00
    endloop
  endfacet
  facet normal -5.941591e-15 -2.310117e-15 1.000000e+00
    outer loop
      vertex 4.000000e+01 -5.000000e+00 5.000000e+00
      vertex 3.651556e+01 8.750000e-01 5.000000e+00
      vertex 3.669037e+01 4.529343e-01 5.000000e+00
    endloop
  endfacet
  facet normal -5.941591e-15 -2.310117e-15 1.000000e+00
    outer loop
      vertex 4.000000e+01 -5.000000e+00 5.000000e+00
      vertex 3.669037e+01 4.529343e-01 5.000000e+00
      vertex 3.675000e+01 0.000000e+00 5.000000e+00
    endloop
  endfacet
  facet normal -5.941591e-15 -2.310117e-15 1.000000e+00
    outer loop
      vertex 4.000000e+01 -5.000000e+00 5.000000e+00
      vertex 3.675000e+01 0.000000e+00 5.000000e+00
      vertex 3.669037e+01 -4.529343e-01 5.000000e+00
    endloop
  endfacet
  facet normal -5.941591e-15 -2.310117e-15 1.000000e+00
    outer loop
      vertex 4.000000e+01 -5.000000e+00 5.000000e+00
      vertex 3.669037e+01 -4.529343e-01 5.000000e+00
      vertex 3.651556e+01 -8.750000e-01 5.000000e+00
    endloop
  endfacet
  facet normal -5.941591e-15 -2.310117e-15 1.000000e+00
    outer loop
      vertex 4.000000e+01 -5.000000e+00 5.000000e+00
      vertex 3.651556e+01 -8.750000e-01 5.000000e+00
      vertex 3.623743e+01 -1.237442e+00 5.000000e+00
    endloop
  endfacet
  facet normal -5.941591e-15 -2.310117e-15 1.000000e+00
    outer loop
      vertex 4.000000e+01 -5.000000e+00 5.000000e+00
      vertex 3.623743e+01 -1.237442e+00 5.000000e+00
      vertex 3.587500e+01 -1.515549e+00 5.000000e+00
    endloop
  endfacet
  facet normal -5.941591e-15 -2.310117e-15 1.000000e+00
    outer loop
      vertex 4.000000e+01 -5.000000e+00 5.000000e+00
      vertex 3.587500e+01 -1.515549e+00 5.000000e+00
      vertex 3.545294e+01 -1.690369e+00 5.000000e+00
    endloop
  endfacet
  facet normal -5.941591e-15 -2.310117e-15 1.000000e+00
    outer loop
      vertex 4.000000e+01 -5.000000e+00 5.000000e+00
      vertex 3.545294e+01 -1.690369e+00 5.000000e+00
      vertex 3.500000e+01 -1.750000e+00 5.000000e+00
    endloop
  endfacet
  facet normal -5.941591e-15 -2.310117e-15 1.000000e+00
    outer loop
      vertex 4.000000e+01 -5.000000e+00 5.000000e+00
      vertex 3.500000e+01 -1.750000e+00 5.000000e+00
      vertex 3.000000e+01 -5.000000e+00 5.000000e+00
    endloop
  endfacet
  facet normal -3.826834e-01 9.238795e-01 4.686520e-17
    outer loop
      vertex -3.454706e+01 -1.690369e+00 1.065814e-14
      vertex -3.412500e+01 -1.515549e+00 5.000000e+00
      vertex -3.412500e+01 -1.515549e+00 1.065814e-14
    endloop
  endfacet
  facet normal -3.826834e-01 9.238795e-01 4.686520e-17
    outer loop
      vertex -3.412500e+01 -1.515549e+00 5.000000e+00
      vertex -3.454706e+01 -1.690369e+00 1.065814e-14
      vertex -3.454706e+01 -1.690369e+00 5.000000e+00
    endloop
  endfacet
  facet normal -9.914449e-01 1.305262e-01 1.214170e-16
    outer loop
      vertex -3.325000e+01 1.421085e-14 1.065814e-14
      vertex -3.330963e+01 -4.529343e-01 5.000000e+00
      vertex -3.325000e+01 1.421085e-14 5.000000e+00
    endloop
  endfacet
  facet normal -9.914449e-01 1.305262e-01 1.214170e-16
    outer loop
      vertex -3.330963e+01 -4.529343e-01 5.000000e+00
      vertex -3.325000e+01 1.421085e-14 1.065814e-14
      vertex -3.330963e+01 -4.529343e-01 1.065814e-14
    endloop
  endfacet
  facet normal 1.470033e-15 1.443823e-15 1.000000e+00
    outer loop
      vertex -3.000000e+01 -5.000000e+00 2.500000e+00
      vertex 3.000000e+01 5.000000e+00 2.500000e+00
      vertex -3.000000e+01 5.000000e+00 2.500000e+00
    endloop
  endfacet
  facet normal 1.470033e-15 1.443823e-15 1.000000e+00
    outer loop
      vertex 3.000000e+01 5.000000e+00 2.500000e+00
      vertex -3.000000e+01 -5.000000e+00 2.500000e+00
      vertex 3.000000e+01 -5.000000e+00 2.500000e+00
    endloop
  endfacet
  facet normal 1.305262e-01 -9.914449e-01 -1.598485e-17
    outer loop
      vertex 3.454706e+01 1.690369e+00 5.000000e+00
      vertex 3.500000e+01 1.750000e+00 0.000000e+00
      vertex 3.500000e+01 1.750000e+00 5.000000e+00
    endloop
  endfacet
  facet normal 1.305262e-01 -9.914449e-01 -1.598485e-17
    outer loop
      vertex 3.500000e+01 1.750000e+00 0.000000e+00
      vertex 3.454706e+01 1.690369e+00 5.000000e+00
      vertex 3.454706e+01 1.690369e+00 0.000000e+00
    endloop
  endfacet
  facet normal -6.123234e-17 -1.000000e+00 7.498799e-33
    outer loop
      vertex -4.000000e+01 -5.000000e+00 5.000000e+00
      vertex -3.000000e+01 -5.000000e+00 2.500000e+00
      vertex -3.000000e+01 -5.000000e+00 5.000000e+00
    endloop
  endfacet
  facet normal -6.123234e-17 -1.000000e+00 7.498799e-33
    outer loop
      vertex 3.000000e+01 -5.000000e+00 5.000000e+00
      vertex 4.000000e+01 -5.000000e+00 0.000000e+00
      vertex 4.000000e+01 -5.000000e+00 5.000000e+00
    endloop
  endfacet
  facet normal -6.123234e-17 -1.000000e+00 7.498799e-33
    outer loop
      vertex 4.000000e+01 -5.000000e+00 0.000000e+00
      vertex 3.000000e+01 -5.000000e+00 5.000000e+00
      vertex 3.000000e+01 -5.000000e+00 2.500000e+00
    endloop
  endfacet
  facet normal -6.123234e-17 -1.000000e+00 7.498799e-33
    outer loop
      vertex 4.000000e+01 -5.000000e+00 0.000000e+00
      vertex 3.000000e+01 -5.000000e+00 2.500000e+00
      vertex -4.000000e+01 -5.000000e+00 1.065814e-14
    endloop
  endfacet
  facet normal -6.123234e-17 -1.000000e+00 7.498799e-33
    outer loop
      vertex -4.000000e+01 -5.000000e+00 1.065814e-14
      vertex 3.000000e+01 -5.000000e+00 2.500000e+00
      vertex -3.000000e+01 -5.000000e+00 2.500000e+00
    endloop
  endfacet
  facet normal -6.123234e-17 -1.000000e+00 7.498799e-33
    outer loop
      vertex -4.000000e+01 -5.000000e+00 1.065814e-14
      vertex -3.000000e+01 -5.000000e+00 2.500000e+00
      vertex -4.000000e+01 -5.000000e+00 5.000000e+00
    endloop
  endfacet
  facet normal -1.305262e-01 -9.914449e-01 1.598485e-17
    outer loop
      vertex 3.500000e+01 1.750000e+00 5.000000e+00
      vertex 3.545294e+01 1.690369e+00 0.000000e+00
      vertex 3.545294e+01 1.690369e+00 5.000000e+00
    endloop
  endfacet
  facet normal -1.305262e-01 -9.914449e-01 1.598485e-17
    outer loop
      vertex 3.545294e+01 1.690369e+00 0.000000e+00
      vertex 3.500000e+01 1.750000e+00 5.000000e+00
      vertex 3.500000e+01 1.750000e+00 0.000000e+00
    endloop
  endfacet
  facet normal 1.000000e+00 -6.123234e-17 -1.224647e-16
    outer loop
      vertex -3.000000e+01 -5.000000e+00 2.500000e+00
      vertex -3.000000e+01 5.000000e+00 5.000000e+00
      vertex -3.000000e+01 -5.000000e+00 5.000000e+00
    endloop
  endfacet
  facet normal 1.000000e+00 -6.123234e-17 -1.224647e-16
    outer loop
      vertex -3.000000e+01 5.000000e+00 5.000000e+00
      vertex -3.000000e+01 -5.000000e+00 2.500000e+00
      vertex -3.000000e+01 5.000000e+00 2.500000e+00
    endloop
  endfacet
  facet normal -3.826834e-01 -9.238795e-01 4.686520e-17
    outer loop
      vertex 3.545294e+01 1.690369e+00 5.000000e+00
      vertex 3.587500e+01 1.515541e+00 0.000000e+00
      vertex 3.587500e+01 1.515541e+00 5.000000e+00
    endloop
  endfacet
  facet normal -3.826834e-01 -9.238795e-01 4.686520e-17
    outer loop
      vertex 3.587500e+01 1.515541e+00 0.000000e+00
      vertex 3.545294e+01 1.690369e+00 5.000000e+00
      vertex 3.545294e+01 1.690369e+00 0.000000e+00
    endloop
  endfacet
  facet normal -6.087614e-01 -7.933533e-01 7.455178e-17
    outer loop
      vertex 3.587500e+01 1.515541e+00 5.000000e+00
      vertex 3.623743e+01 1.237434e+00 0.000000e+00
      vertex 3.623743e+01 1.237434e+00 5.000000e+00
    endloop
  endfacet
  facet normal -6.087614e-01 -7.933533e-01 7.455178e-17
    outer loop
      vertex 3.623743e+01 1.237434e+00 0.000000e+00
      vertex 3.587500e+01 1.515541e+00 5.000000e+00
      vertex 3.587500e+01 1.515541e+00 0.000000e+00
    endloop
  endfacet
  facet normal -3.751337e-16 2.021352e-15 -1.000000e+00
    outer loop
      vertex 3.454706e+01 1.690369e+00 0.000000e+00
      vertex -3.500000e+01 1.750000e+00 1.065814e-14
      vertex 3.500000e+01 1.750000e+00 0.000000e+00
    endloop
  endfacet
  facet normal -3.751337e-16 2.021352e-15 -1.000000e+00
    outer loop
      vertex -3.500000e+01 1.750000e+00 1.065814e-14
      vertex 3.454706e+01 1.690369e+00 0.000000e+00
      vertex -3.454706e+01 1.690369e+00 1.065814e-14
    endloop
  endfacet
  facet normal -3.751337e-16 2.021352e-15 -1.000000e+00
    outer loop
      vertex -3.454706e+01 1.690369e+00 1.065814e-14
      vertex 3.454706e+01 1.690369e+00 0.000000e+00
      vertex 3.412500e+01 1.515541e+00 3.552714e-15
    endloop
  endfacet
  facet normal -3.751337e-16 2.021352e-15 -1.000000e+00
    outer loop
      vertex -3.454706e+01 1.690369e+00 1.065814e-14
      vertex 3.412500e+01 1.515541e+00 3.552714e-15
      vertex -3.412500e+01 1.515541e+00 1.065814e-14
    endloop
  endfacet
  facet normal -3.751337e-16 2.021352e-15 -1.000000e+00
    outer loop
      vertex -3.412500e+01 1.515541e+00 1.065814e-14
      vertex 3.412500e+01 1.515541e+00 3.552714e-15
      vertex 3.376257e+01 1.237434e+00 3.552714e-15
    endloop
  endfacet
  facet normal -3.751337e-16 2.021352e-15 -1.000000e+00
    outer loop
      vertex -3.412500e+01 1.515541e+00 1.065814e-14
      vertex 3.376257e+01 1.237434e+00 3.552714e-15
      vertex -3.376257e+01 1.237434e+00 1.065814e-14
    endloop
  endfacet
  facet normal -3.751337e-16 2.021352e-15 -1.000000e+00
    outer loop
      vertex -3.376257e+01 1.237434e+00 1.065814e-14
      vertex 3.376257e+01 1.237434e+00 3.552714e-15
      vertex 3.348444e+01 8.750000e-01 3.552714e-15
    endloop
  endfacet
  facet normal -3.751337e-16 2.021352e-15 -1.000000e+00
    outer loop
      vertex -3.376257e+01 1.237434e+00 1.065814e-14
      vertex 3.348444e+01 8.750000e-01 3.552714e-15
      vertex -3.348444e+01 8.750000e-01 1.065814e-14
    endloop
  endfacet
  facet normal -3.751337e-16 2.021352e-15 -1.000000e+00
    outer loop
      vertex -3.348444e+01 8.750000e-01 1.065814e-14
      vertex 3.348444e+01 8.750000e-01 3.552714e-15
      vertex 3.330963e+01 4.529343e-01 3.552714e-15
    endloop
  endfacet
  facet normal -3.751337e-16 2.021352e-15 -1.000000e+00
    outer loop
      vertex -3.348444e+01 8.750000e-01 1.065814e-14
      vertex 3.330963e+01 4.529343e-01 3.552714e-15
      vertex -3.330963e+01 4.529343e-01 1.065814e-14
    endloop
  endfacet
  facet normal -3.751337e-16 2.021352e-15 -1.000000e+00
    outer loop
      vertex -3.330963e+01 4.529343e-01 1.065814e-14
      vertex 3.330963e+01 4.529343e-01 3.552714e-15
      vertex 3.325000e+01 0.000000e+00 3.552714e-15
    endloop
  endfacet
  facet normal -3.751337e-16 2.021352e-15 -1.000000e+00
    outer loop
      vertex -3.330963e+01 4.529343e-01 1.065814e-14
      vertex 3.325000e+01 0.000000e+00 3.552714e-15
      vertex -3.325000e+01 1.421085e-14 1.065814e-14
    endloop
  endfacet
  facet normal -3.751337e-16 2.021352e-15 -1.000000e+00
    outer loop
      vertex -3.325000e+01 1.421085e-14 1.065814e-14
      vertex 3.325000e+01 0.000000e+00 3.552714e-15
      vertex 3.330963e+01 -4.529343e-01 3.552714e-15
    endloop
  endfacet
  facet normal -3.751337e-16 2.021352e-15 -1.000000e+00
    outer loop
      vertex -3.325000e+01 1.421085e-14 1.065814e-14
      vertex 3.330963e+01 -4.529343e-01 3.552714e-15
      vertex -3.330963e+01 -4.529343e-01 1.065814e-14
    endloop
  endfacet
  facet normal -3.751337e-16 2.021352e-15 -1.000000e+00
    outer loop
      vertex -3.330963e+01 -4.529343e-01 1.065814e-14
      vertex 3.330963e+01 -4.529343e-01 3.552714e-15
      vertex 3.348444e+01 -8.750000e-01 3.552714e-15
    endloop
  endfacet
  facet normal -3.751337e-16 2.021352e-15 -1.000000e+00
    outer loop
      vertex -3.330963e+01 -4.529343e-01 1.065814e-14
      vertex 3.348444e+01 -8.750000e-01 3.552714e-15
      vertex -3.348444e+01 -8.750000e-01 1.065814e-14
    endloop
  endfacet
  facet normal -3.751337e-16 2.021352e-15 -1.000000e+00
    outer loop
      vertex -3.348444e+01 -8.750000e-01 1.065814e-14
      vertex 3.348444e+01 -8.750000e-01 3.552714e-15
      vertex -3.376257e+01 -1.237442e+00 1.065814e-14
    endloop
  endfacet
  facet normal -3.751337e-16 2.021352e-15 -1.000000e+00
    outer loop
      vertex -3.376257e+01 -1.237442e+00 1.065814e-14
      vertex 3.348444e+01 -8.750000e-01 3.552714e-15
      vertex 3.376257e+01 -1.237442e+00 3.552714e-15
    endloop
  endfacet
  facet normal -3.751337e-16 2.021352e-15 -1.000000e+00
    outer loop
      vertex -3.376257e+01 -1.237442e+00 1.065814e-14
      vertex 3.376257e+01 -1.237442e+00 3.552714e-15
      vertex -3.412500e+01 -1.515549e+00 1.065814e-14
    endloop
  endfacet
  facet normal -3.751337e-16 2.021352e-15 -1.000000e+00
    outer loop
      vertex -3.412500e+01 -1.515549e+00 1.065814e-14
      vertex 3.376257e+01 -1.237442e+00 3.552714e-15
      vertex 3.412500e+01 -1.515549e+00 3.552714e-15
    endloop
  endfacet
  facet normal -3.751337e-16 2.021352e-15 -1.000000e+00
    outer loop
      vertex -3.412500e+01 -1.515549e+00 1.065814e-14
      vertex 3.412500e+01 -1.515549e+00 3.552714e-15
      vertex -3.454706e+01 -1.690369e+00 1.065814e-14
    endloop
  endfacet
  facet normal -3.751337e-16 2.021352e-15 -1.000000e+00
    outer loop
      vertex -3.454706e+01 -1.690369e+00 1.065814e-14
      vertex 3.412500e+01 -1.515549e+00 3.552714e-15
      vertex 3.454706e+01 -1.690369e+00 0.000000e+00
    endloop
  endfacet
  facet normal -3.751337e-16 2.021352e-15 -1.000000e+00
    outer loop
      vertex -3.454706e+01 -1.690369e+00 1.065814e-14
      vertex 3.454706e+01 -1.690369e+00 0.000000e+00
      vertex -3.500000e+01 -1.750000e+00 1.065814e-14
    endloop
  endfacet
  facet normal -3.751337e-16 2.021352e-15 -1.000000e+00
    outer loop
      vertex -3.500000e+01 -1.750000e+00 1.065814e-14
      vertex 3.454706e+01 -1.690369e+00 0.000000e+00
      vertex 3.500000e+01 -1.750000e+00 0.000000e+00
    endloop
  endfacet
  facet normal -3.751337e-16 2.021352e-15 -1.000000e+00
    outer loop
      vertex 4.000000e+01 5.000000e+00 0.000000e+00
      vertex 3.500000e+01 1.750000e+00 0.000000e+00
      vertex -4.000000e+01 5.000000e+00 1.065814e-14
    endloop
  endfacet
  facet normal -3.751337e-16 2.021352e-15 -1.000000e+00
    outer loop
      vertex 3.500000e+01 1.750000e+00 0.000000e+00
      vertex 4.000000e+01 5.000000e+00 0.000000e+00
      vertex 3.545294e+01 1.690369e+00 0.000000e+00
    endloop
  endfacet
  facet normal -3.751337e-16 2.021352e-15 -1.000000e+00
    outer loop
      vertex 3.545294e+01 1.690369e+00 0.000000e+00
      vertex 4.000000e+01 5.000000e+00 0.000000e+00
      vertex 3.587500e+01 1.515541e+00 0.000000e+00
    endloop
  endfacet
  facet normal -3.751337e-16 2.021352e-15 -1.000000e+00
    outer loop
      vertex 3.587500e+01 1.515541e+00 0.000000e+00
      vertex 4.000000e+01 5.000000e+00 0.000000e+00
      vertex 3.623743e+01 1.237434e+00 0.000000e+00
    endloop
  endfacet
  facet normal -3.751337e-16 2.021352e-15 -1.000000e+00
    outer loop
      vertex 3.623743e+01 1.237434e+00 0.000000e+00
      vertex 4.000000e+01 5.000000e+00 0.000000e+00
      vertex 3.651556e+01 8.750000e-01 0.000000e+00
    endloop
  endfacet
  facet normal -3.751337e-16 2.021352e-15 -1.000000e+00
    outer loop
      vertex 3.651556e+01 8.750000e-01 0.000000e+00
      vertex 4.000000e+01 5.000000e+00 0.000000e+00
      vertex 4.000000e+01 -5.000000e+00 0.000000e+00
    endloop
  endfacet
  facet normal -3.751337e-16 2.021352e-15 -1.000000e+00
    outer loop
      vertex 3.651556e+01 8.750000e-01 0.000000e+00
      vertex 4.000000e+01 -5.000000e+00 0.000000e+00
      vertex 3.669037e+01 4.529343e-01 0.000000e+00
    endloop
  endfacet
  facet normal -3.751337e-16 2.021352e-15 -1.000000e+00
    outer loop
      vertex 3.669037e+01 4.529343e-01 0.000000e+00
      vertex 4.000000e+01 -5.000000e+00 0.000000e+00
      vertex 3.675000e+01 0.000000e+00 0.000000e+00
    endloop
  endfacet
  facet normal -3.751337e-16 2.021352e-15 -1.000000e+00
    outer loop
      vertex 3.675000e+01 0.000000e+00 0.000000e+00
      vertex 4.000000e+01 -5.000000e+00 0.000000e+00
      vertex 3.669037e+01 -4.529343e-01 0.000000e+00
    endloop
  endfacet
  facet normal -3.751337e-16 2.021352e-15 -1.000000e+00
    outer loop
      vertex 3.669037e+01 -4.529343e-01 0.000000e+00
      vertex 4.000000e+01 -5.000000e+00 0.000000e+00
      vertex 3.651556e+01 -8.750000e-01 0.000000e+00
    endloop
  endfacet
  facet normal -3.751337e-16 2.021352e-15 -1.000000e+00
    outer loop
      vertex 3.651556e+01 -8.750000e-01 0.000000e+00
      vertex 4.000000e+01 -5.000000e+00 0.000000e+00
      vertex 3.623743e+01 -1.237442e+00 0.000000e+00
    endloop
  endfacet
  facet normal -3.751337e-16 2.021352e-15 -1.000000e+00
    outer loop
      vertex 3.623743e+01 -1.237442e+00 0.000000e+00
      vertex 4.000000e+01 -5.000000e+00 0.000000e+00
      vertex 3.587500e+01 -1.515549e+00 0.000000e+00
    endloop
  endfacet
  facet normal -3.751337e-16 2.021352e-15 -1.000000e+00
    outer loop
      vertex 3.587500e+01 -1.515549e+00 0.000000e+00
      vertex 4.000000e+01 -5.000000e+00 0.000000e+00
      vertex 3.545294e+01 -1.690369e+00 0.000000e+00
    endloop
  endfacet
  facet normal -3.751337e-16 2.021352e-15 -1.000000e+00
    outer loop
      vertex 3.545294e+01 -1.690369e+00 0.000000e+00
      vertex 4.000000e+01 -5.000000e+00 0.000000e+00
      vertex 3.500000e+01 -1.750000e+00 0.000000e+00
    endloop
  endfacet
  facet normal -3.751337e-16 2.021352e-15 -1.000000e+00
    outer loop
      vertex -4.000000e+01 5.000000e+00 1.065814e-14
      vertex -3.651556e+01 8.750000e-01 1.065814e-14
      vertex -4.000000e+01 -5.000000e+00 1.065814e-14
    endloop
  endfacet
  facet normal -3.751337e-16 2.021352e-15 -1.000000e+00
    outer loop
      vertex -3.651556e+01 8.750000e-01 1.065814e-14
      vertex -4.000000e+01 5.000000e+00 1.065814e-14
      vertex -3.623743e+01 1.237434e+00 1.065814e-14
    endloop
  endfacet
  facet normal -3.751337e-16 2.021352e-15 -1.000000e+00
    outer loop
      vertex -3.623743e+01 1.237434e+00 1.065814e-14
      vertex -4.000000e+01 5.000000e+00 1.065814e-14
      vertex -3.587500e+01 1.515541e+00 1.065814e-14
    endloop
  endfacet
  facet normal -3.751337e-16 2.021352e-15 -1.000000e+00
    outer loop
      vertex -3.587500e+01 1.515541e+00 1.065814e-14
      vertex -4.000000e+01 5.000000e+00 1.065814e-14
      vertex -3.545294e+01 1.690369e+00 1.065814e-14
    endloop
  endfacet
  facet normal -3.751337e-16 2.021352e-15 -1.000000e+00
    outer loop
      vertex -3.545294e+01 1.690369e+00 1.065814e-14
      vertex -4.000000e+01 5.000000e+00 1.065814e-14
      vertex -3.500000e+01 1.750000e+00 1.065814e-14
    endloop
  endfacet
  facet normal -3.751337e-16 2.021352e-15 -1.000000e+00
    outer loop
      vertex -3.500000e+01 1.750000e+00 1.065814e-14
      vertex -4.000000e+01 5.000000e+00 1.065814e-14
      vertex 3.500000e+01 1.750000e+00 0.000000e+00
    endloop
  endfacet
  facet normal -3.751337e-16 2.021352e-15 -1.000000e+00
    outer loop
      vertex -4.000000e+01 -5.000000e+00 1.065814e-14
      vertex -3.651556e+01 8.750000e-01 1.065814e-14
      vertex -3.669037e+01 4.529343e-01 1.065814e-14
    endloop
  endfacet
  facet normal -3.751337e-16 2.021352e-15 -1.000000e+00
    outer loop
      vertex -4.000000e+01 -5.000000e+00 1.065814e-14
      vertex -3.669037e+01 4.529343e-01 1.065814e-14
      vertex -3.675000e+01 1.421085e-14 1.065814e-14
    endloop
  endfacet
  facet normal -3.751337e-16 2.021352e-15 -1.000000e+00
    outer loop
      vertex -4.000000e+01 -5.000000e+00 1.065814e-14
      vertex -3.675000e+01 1.421085e-14 1.065814e-14
      vertex -3.669037e+01 -4.529343e-01 1.065814e-14
    endloop
  endfacet
  facet normal -3.751337e-16 2.021352e-15 -1.000000e+00
    outer loop
      vertex -4.000000e+01 -5.000000e+00 1.065814e-14
      vertex -3.669037e+01 -4.529343e-01 1.065814e-14
      vertex -3.651556e+01 -8.750000e-01 1.065814e-14
    endloop
  endfacet
  facet normal -3.751337e-16 2.021352e-15 -1.000000e+00
    outer loop
      vertex -4.000000e+01 -5.000000e+00 1.065814e-14
      vertex -3.651556e+01 -8.750000e-01 1.065814e-14
      vertex -3.623743e+01 -1.237442e+00 1.065814e-14
    endloop
  endfacet
  facet normal -3.751337e-16 2.021352e-15 -1.000000e+00
    outer loop
      vertex -4.000000e+01 -5.000000e+00 1.065814e-14
      vertex -3.623743e+01 -1.237442e+00 1.065814e-14
      vertex -3.587500e+01 -1.515549e+00 1.065814e-14
    endloop
  endfacet
  facet normal -3.751337e-16 2.021352e-15 -1.000000e+00
    outer loop
      vertex -4.000000e+01 -5.000000e+00 1.065814e-14
      vertex -3.587500e+01 -1.515549e+00 1.065814e-14
      vertex -3.545294e+01 -1.690369e+00 1.065814e-14
    endloop
  endfacet
  facet normal -3.751337e-16 2.021352e-15 -1.000000e+00
    outer loop
      vertex -4.000000e+01 -5.000000e+00 1.065814e-14
      vertex -3.545294e+01 -1.690369e+00 1.065814e-14
      vertex -3.500000e+01 -1.750000e+00 1.065814e-14
    endloop
  endfacet
  facet normal -3.751337e-16 2.021352e-15 -1.000000e+00
    outer loop
      vertex -4.000000e+01 -5.000000e+00 1.065814e-14
      vertex -3.500000e+01 -1.750000e+00 1.065814e-14
      vertex 3.500000e+01 -1.750000e+00 0.000000e+00
    endloop
  endfacet
  facet normal -3.751337e-16 2.021352e-15 -1.000000e+00
    outer loop
      vertex -4.000000e+01 -5.000000e+00 1.065814e-14
      vertex 3.500000e+01 -1.750000e+00 0.000000e+00
      vertex 4.000000e+01 -5.000000e+00 0.000000e+00
    endloop
  endfacet
  facet normal -7.933533e-01 -6.087614e-01 9.715776e-17
    outer loop
      vertex 3.623743e+01 1.237434e+00 0.000000e+00
      vertex 3.651556e+01 8.750000e-01 5.000000e+00
      vertex 3.623743e+01 1.237434e+00 5.000000e+00
    endloop
  endfacet
  facet normal -7.933533e-01 -6.087614e-01 9.715776e-17
    outer loop
      vertex 3.651556e+01 8.750000e-01 5.000000e+00
      vertex 3.623743e+01 1.237434e+00 0.000000e+00
      vertex 3.651556e+01 8.750000e-01 0.000000e+00
    endloop
  endfacet
  facet normal -1.000000e+00 4.681466e-15 2.322363e-14
    outer loop
      vertex 3.000000e+01 5.000000e+00 2.500000e+00
      vertex 3.000000e+01 -5.000000e+00 5.000000e+00
      vertex 3.000000e+01 5.000000e+00 5.000000e+00
    endloop
  endfacet
  facet normal -1.000000e+00 4.681466e-15 2.322363e-14
    outer loop
      vertex 3.000000e+01 -5.000000e+00 5.000000e+00
      vertex 3.000000e+01 5.000000e+00 2.500000e+00
      vertex 3.000000e+01 -5.000000e+00 2.500000e+00
    endloop
  endfacet
  facet normal -1.000000e+00 6.123234e-17 1.224647e-16
    outer loop
      vertex -4.000000e+01 5.000000e+00 1.065814e-14
      vertex -4.000000e+01 -5.000000e+00 5.000000e+00
      vertex -4.000000e+01 5.000000e+00 5.000000e+00
    endloop
  endfacet
  facet normal -1.000000e+00 6.123234e-17 1.224647e-16
    outer loop
      vertex -4.000000e+01 -5.000000e+00 5.000000e+00
      vertex -4.000000e+01 5.000000e+00 1.065814e-14
      vertex -4.000000e+01 -5.000000e+00 1.065814e-14
    endloop
  endfacet
  facet normal 1.224647e-16 0.000000e+00 1.000000e+00
    outer loop
      vertex -4.000000e+01 5.000000e+00 5.000000e+00
      vertex -3.587500e+01 1.515541e+00 5.000000e+00
      vertex -3.000000e+01 5.000000e+00 5.000000e+00
    endloop
  endfacet
  facet normal 1.224647e-16 0.000000e+00 1.000000e+00
    outer loop
      vertex -3.587500e+01 1.515541e+00 5.000000e+00
      vertex -4.000000e+01 5.000000e+00 5.000000e+00
      vertex -3.623743e+01 1.237434e+00 5.000000e+00
    endloop
  endfacet
  facet normal 1.224647e-16 0.000000e+00 1.000000e+00
    outer loop
      vertex -3.623743e+01 1.237434e+00 5.000000e+00
      vertex -4.000000e+01 5.000000e+00 5.000000e+00
      vertex -3.651556e+01 8.750000e-01 5.000000e+00
    endloop
  endfacet
  facet normal 1.224647e-16 0.000000e+00 1.000000e+00
    outer loop
      vertex -3.651556e+01 8.750000e-01 5.000000e+00
      vertex -4.000000e+01 5.000000e+00 5.000000e+00
      vertex -4.000000e+01 -5.000000e+00 5.000000e+00
    endloop
  endfacet
  facet normal 1.224647e-16 0.000000e+00 1.000000e+00
    outer loop
      vertex -3.000000e+01 5.000000e+00 5.000000e+00
      vertex -3.587500e+01 1.515541e+00 5.000000e+00
      vertex -3.545294e+01 1.690369e+00 5.000000e+00
    endloop
  endfacet
  facet normal 1.224647e-16 0.000000e+00 1.000000e+00
    outer loop
      vertex -3.000000e+01 5.000000e+00 5.000000e+00
      vertex -3.545294e+01 1.690369e+00 5.000000e+00
      vertex -3.500000e+01 1.750000e+00 5.000000e+00
    endloop
  endfacet
  facet normal 1.224647e-16 0.000000e+00 1.000000e+00
    outer loop
      vertex -3.651556e+01 8.750000e-01 5.000000e+00
      vertex -4.000000e+01 -5.000000e+00 5.000000e+00
      vertex -3.669037e+01 4.529343e-01 5.000000e+00
    endloop
  endfacet
  facet normal 1.224647e-16 0.000000e+00 1.000000e+00
    outer loop
      vertex -3.669037e+01 4.529343e-01 5.000000e+00
      vertex -4.000000e+01 -5.000000e+00 5.000000e+00
      vertex -3.675000e+01 1.421085e-14 5.000000e+00
    endloop
  endfacet
  facet normal 1.224647e-16 0.000000e+00 1.000000e+00
    outer loop
      vertex -3.675000e+01 1.421085e-14 5.000000e+00
      vertex -4.000000e+01 -5.000000e+00 5.000000e+00
      vertex -3.669037e+01 -4.529343e-01 5.000000e+00
    endloop
  endfacet
  facet normal 1.224647e-16 0.000000e+00 1.000000e+00
    outer loop
      vertex -3.669037e+01 -4.529343e-01 5.000000e+00
      vertex -4.000000e+01 -5.000000e+00 5.000000e+00
      vertex -3.651556e+01 -8.750000e-01 5.000000e+00
    endloop
  endfacet
  facet normal 1.224647e-16 0.000000e+00 1.000000e+00
    outer loop
      vertex -3.651556e+01 -8.750000e-01 5.000000e+00
      vertex -4.000000e+01 -5.000000e+00 5.000000e+00
      vertex -3.623743e+01 -1.237442e+00 5.000000e+00
    endloop
  endfacet
  facet normal 1.224647e-16 0.000000e+00 1.000000e+00
    outer loop
      vertex -3.623743e+01 -1.237442e+00 5.000000e+00
      vertex -4.000000e+01 -5.000000e+00 5.000000e+00
      vertex -3.587500e+01 -1.515549e+00 5.000000e+00
    endloop
  endfacet
  facet normal 1.224647e-16 0.000000e+00 1.000000e+00
    outer loop
      vertex -3.587500e+01 -1.515549e+00 5.000000e+00
      vertex -4.000000e+01 -5.000000e+00 5.000000e+00
      vertex -3.545294e+01 -1.690369e+00 5.000000e+00
    endloop
  endfacet
  facet normal 1.224647e-16 0.000000e+00 1.000000e+00
    outer loop
      vertex -3.545294e+01 -1.690369e+00 5.000000e+00
      vertex -4.000000e+01 -5.000000e+00 5.000000e+00
      vertex -3.500000e+01 -1.750000e+00 5.000000e+00
    endloop
  endfacet
  facet normal 1.224647e-16 0.000000e+00 1.000000e+00
    outer loop
      vertex -3.000000e+01 5.000000e+00 5.000000e+00
      vertex -3.348444e+01 8.750000e-01 5.000000e+00
      vertex -3.000000e+01 -5.000000e+00 5.000000e+00
    endloop
  endfacet
  facet normal 1.224647e-16 0.000000e+00 1.000000e+00
    outer loop
      vertex -3.348444e+01 8.750000e-01 5.000000e+00
      vertex -3.000000e+01 5.000000e+00 5.000000e+00
      vertex -3.376257e+01 1.237434e+00 5.000000e+00
    endloop
  endfacet
  facet normal 1.224647e-16 0.000000e+00 1.000000e+00
    outer loop
      vertex -3.376257e+01 1.237434e+00 5.000000e+00
      vertex -3.000000e+01 5.000000e+00 5.000000e+00
      vertex -3.412500e+01 1.515541e+00 5.000000e+00
    endloop
  endfacet
  facet normal 1.224647e-16 0.000000e+00 1.000000e+00
    outer loop
      vertex -3.412500e+01 1.515541e+00 5.000000e+00
      vertex -3.000000e+01 5.000000e+00 5.000000e+00
      vertex -3.454706e+01 1.690369e+00 5.000000e+00
    endloop
  endfacet
  facet normal 1.224647e-16 0.000000e+00 1.000000e+00
    outer loop
      vertex -3.454706e+01 1.690369e+00 5.000000e+00
      vertex -3.000000e+01 5.000000e+00 5.000000e+00
      vertex -3.500000e+01 1.750000e+00 5.000000e+00
    endloop
  endfacet
  facet normal 1.224647e-16 0.000000e+00 1.000000e+00
    outer loop
      vertex -3.000000e+01 -5.000000e+00 5.000000e+00
      vertex -3.348444e+01 8.750000e-01 5.000000e+00
      vertex -3.330963e+01 4.529343e-01 5.000000e+00
    endloop
  endfacet
  facet normal 1.224647e-16 0.000000e+00 1.000000e+00
    outer loop
      vertex -3.000000e+01 -5.000000e+00 5.000000e+00
      vertex -3.330963e+01 4.529343e-01 5.000000e+00
      vertex -3.325000e+01 1.421085e-14 5.000000e+00
    endloop
  endfacet
  facet normal 1.224647e-16 0.000000e+00 1.000000e+00
    outer loop
      vertex -3.000000e+01 -5.000000e+00 5.000000e+00
      vertex -3.325000e+01 1.421085e-14 5.000000e+00
      vertex -3.330963e+01 -4.529343e-01 5.000000e+00
    endloop
  endfacet
  facet normal 1.224647e-16 0.000000e+00 1.000000e+00
    outer loop
      vertex -3.000000e+01 -5.000000e+00 5.000000e+00
      vertex -3.330963e+01 -4.529343e-01 5.000000e+00
      vertex -3.348444e+01 -8.750000e-01 5.000000e+00
    endloop
  endfacet
  facet normal 1.224647e-16 0.000000e+00 1.000000e+00
    outer loop
      vertex -3.000000e+01 -5.000000e+00 5.000000e+00
      vertex -3.348444e+01 -8.750000e-01 5.000000e+00
      vertex -3.376257e+01 -1.237442e+00 5.000000e+00
    endloop
  endfacet
  facet normal 1.224647e-16 0.000000e+00 1.000000e+00
    outer loop
      vertex -3.000000e+01 -5.000000e+00 5.000000e+00
      vertex -3.376257e+01 -1.237442e+00 5.000000e+00
      vertex -3.412500e+01 -1.515549e+00 5.000000e+00
    endloop
  endfacet
  facet normal 1.224647e-16 0.000000e+00 1.000000e+00
    outer loop
      vertex -3.000000e+01 -5.000000e+00 5.000000e+00
      vertex -3.412500e+01 -1.515549e+00 5.000000e+00
      vertex -3.454706e+01 -1.690369e+00 5.000000e+00
    endloop
  endfacet
  facet normal 1.224647e-16 0.000000e+00 1.000000e+00
    outer loop
      vertex -3.000000e+01 -5.000000e+00 5.000000e+00
      vertex -3.454706e+01 -1.690369e+00 5.000000e+00
      vertex -3.500000e+01 -1.750000e+00 5.000000e+00
    endloop
  endfacet
  facet normal 1.224647e-16 0.000000e+00 1.000000e+00
    outer loop
      vertex -3.000000e+01 -5.000000e+00 5.000000e+00
      vertex -3.500000e+01 -1.750000e+00 5.000000e+00
      vertex -4.000000e+01 -5.000000e+00 5.000000e+00
    endloop
  endfacet
endsolid Default
