solid Board
facet normal -8.34981882832497e-015 -1.0 0.0
  outer loop
    vertex 156.900767986296 126.598813202916 39.5499999999993
    vertex 148.600767986296 126.598813202917 30.5499999999993
    vertex 156.900767986296 126.598813202916 30.5499999999993
  endloop
endfacet
facet normal -8.34981882832497e-015 -1.0 0.0
  outer loop
    vertex 148.600767986296 126.598813202917 30.5499999999993
    vertex 156.900767986296 126.598813202916 39.5499999999993
    vertex 148.600767986296 126.598813202917 39.5499999999993
  endloop
endfacet
facet normal -1.0 1.40007063182018e-015 -3.09603247964351e-015
  outer loop
    vertex 148.600767986296 134.598813202917 37.0499999999994
    vertex 148.600767986296 131.598813202917 33.0499999999993
    vertex 148.600767986296 131.598813202917 37.0499999999994
  endloop
endfacet
facet normal -1.0 1.40007063182018e-015 -3.09603247964351e-015
  outer loop
    vertex 148.600767986296 131.598813202917 33.0499999999993
    vertex 148.600767986296 134.598813202917 37.0499999999994
    vertex 148.600767986296 134.598813202917 33.0499999999993
  endloop
endfacet
facet normal -1.0 1.40007063182018e-015 -3.09603247964351e-015
  outer loop
    vertex 148.600767986296 131.598813202917 39.5499999999993
    vertex 148.600767986296 126.598813202917 30.5499999999993
    vertex 148.600767986296 126.598813202917 39.5499999999993
  endloop
endfacet
facet normal -1.0 1.40007063182018e-015 -3.09603247964351e-015
  outer loop
    vertex 148.600767986296 126.598813202917 30.5499999999993
    vertex 148.600767986296 131.598813202917 39.5499999999993
    vertex 148.600767986296 131.598813202917 37.0499999999994
  endloop
endfacet
facet normal -1.0 1.40007063182018e-015 -3.09603247964351e-015
  outer loop
    vertex 148.600767986296 126.598813202917 30.5499999999993
    vertex 148.600767986296 131.598813202917 37.0499999999994
    vertex 148.600767986296 131.598813202917 30.5499999999993
  endloop
endfacet
facet normal -1.0 1.40007063182018e-015 -3.09603247964351e-015
  outer loop
    vertex 148.600767986296 131.598813202917 30.5499999999993
    vertex 148.600767986296 131.598813202917 37.0499999999994
    vertex 148.600767986296 131.598813202917 33.0499999999993
  endloop
endfacet
facet normal 0.0 1.0 0.0
  outer loop
    vertex 168.600767986296 134.098813202917 39.5499999999993
    vertex 176.800767986296 134.098813202917 30.5499999999993
    vertex 168.600767986296 134.098813202917 30.5499999999993
  endloop
endfacet
facet normal 0.0 1.0 0.0
  outer loop
    vertex 176.800767986296 134.098813202917 30.5499999999993
    vertex 168.600767986296 134.098813202917 39.5499999999993
    vertex 176.800767986296 134.098813202917 39.5499999999993
  endloop
endfacet
facet normal 0.884094940294938 -0.467307325584449 0.0
  outer loop
    vertex 163.800767986296 126.598813202917 30.5499999999993
    vertex 160.100767986296 119.598813202916 39.5499999999993
    vertex 160.100767986296 119.598813202916 30.5499999999993
  endloop
endfacet
facet normal 0.884094940294938 -0.467307325584449 0.0
  outer loop
    vertex 160.100767986296 119.598813202916 39.5499999999993
    vertex 163.800767986296 126.598813202917 30.5499999999993
    vertex 163.800767986296 126.598813202917 39.5499999999993
  endloop
endfacet
facet normal -2.56679615833692e-014 -1.0 0.0
  outer loop
    vertex 160.100767986296 119.598813202916 39.5499999999993
    vertex 158.300767986296 119.598813202916 30.5499999999993
    vertex 160.100767986296 119.598813202916 30.5499999999993
  endloop
endfacet
facet normal -2.56679615833692e-014 -1.0 0.0
  outer loop
    vertex 158.300767986296 119.598813202916 30.5499999999993
    vertex 160.100767986296 119.598813202916 39.5499999999993
    vertex 158.300767986296 119.598813202916 39.5499999999993
  endloop
endfacet
facet normal -0.980580675690919 -0.196116135138191 0.0
  outer loop
    vertex 156.900767986296 126.598813202916 39.5499999999993
    vertex 158.300767986296 119.598813202916 30.5499999999993
    vertex 158.300767986296 119.598813202916 39.5499999999993
  endloop
endfacet
facet normal -0.980580675690919 -0.196116135138191 0.0
  outer loop
    vertex 158.300767986296 119.598813202916 30.5499999999993
    vertex 156.900767986296 126.598813202916 39.5499999999993
    vertex 156.900767986296 126.598813202916 30.5499999999993
  endloop
endfacet
facet normal 0.339922884021929 -0.940453312460653 0.0
  outer loop
    vertex 194.099259448615 134.694653490502 39.5499999999993
    vertex 171.700767986296 126.598813202917 30.5499999999993
    vertex 194.099259448615 134.694653490502 30.5499999999993
  endloop
endfacet
facet normal 0.339922884021929 -0.940453312460653 0.0
  outer loop
    vertex 171.700767986296 126.598813202917 30.5499999999993
    vertex 194.099259448615 134.694653490502 39.5499999999993
    vertex 171.700767986296 126.598813202917 39.5499999999993
  endloop
endfacet
facet normal -0.339922884021927 0.940453312460654 0.0
  outer loop
    vertex 176.800767986296 134.098813202917 39.5499999999993
    vertex 192.290940023785 139.697670565864 30.5499999999993
    vertex 176.800767986296 134.098813202917 30.5499999999993
  endloop
endfacet
facet normal -0.339922884021927 0.940453312460654 0.0
  outer loop
    vertex 192.290940023785 139.697670565864 30.5499999999993
    vertex 176.800767986296 134.098813202917 39.5499999999993
    vertex 192.290940023785 139.697670565864 39.5499999999993
  endloop
endfacet
facet normal -0.130526192219991 -0.991444861373818 0.0
  outer loop
    vertex 171.04076036297 132.240887107608 39.5499999999993
    vertex 170.600767986296 132.298813202917 30.5499999999993
    vertex 171.04076036297 132.240887107608 30.5499999999993
  endloop
endfacet
facet normal -0.130526192219991 -0.991444861373818 0.0
  outer loop
    vertex 170.600767986296 132.298813202917 30.5499999999993
    vertex 171.04076036297 132.240887107608 39.5499999999993
    vertex 170.600767986296 132.298813202917 39.5499999999993
  endloop
endfacet
facet normal 0.130526192219895 -0.991444861373831 0.0
  outer loop
    vertex 170.600767986296 132.298813202917 39.5499999999993
    vertex 170.160775609622 132.240887107608 30.5499999999993
    vertex 170.600767986296 132.298813202917 30.5499999999993
  endloop
endfacet
facet normal 0.130526192219895 -0.991444861373831 0.0
  outer loop
    vertex 170.160775609622 132.240887107608 30.5499999999993
    vertex 170.600767986296 132.298813202917 39.5499999999993
    vertex 170.160775609622 132.240887107608 39.5499999999993
  endloop
endfacet
facet normal 0.382683432365177 -0.923879532511251 0.0
  outer loop
    vertex 170.160775609622 132.240887107608 39.5499999999993
    vertex 169.750767986296 132.07105638935 30.5499999999993
    vertex 170.160775609622 132.240887107608 30.5499999999993
  endloop
endfacet
facet normal 0.382683432365177 -0.923879532511251 0.0
  outer loop
    vertex 169.750767986296 132.07105638935 30.5499999999993
    vertex 170.160775609622 132.240887107608 39.5499999999993
    vertex 169.750767986296 132.07105638935 39.5499999999993
  endloop
endfacet
facet normal 0.608761429008806 -0.79335334029117 0.0
  outer loop
    vertex 169.750767986296 132.07105638935 39.5499999999993
    vertex 169.398686458279 131.800894730934 30.5499999999993
    vertex 169.750767986296 132.07105638935 30.5499999999993
  endloop
endfacet
facet normal 0.608761429008806 -0.79335334029117 0.0
  outer loop
    vertex 169.398686458279 131.800894730934 30.5499999999993
    vertex 169.750767986296 132.07105638935 39.5499999999993
    vertex 169.398686458279 131.800894730934 39.5499999999993
  endloop
endfacet
facet normal 0.79335334029133 -0.608761429008597 0.0
  outer loop
    vertex 169.398686458279 131.800894730934 30.5499999999993
    vertex 169.128524799863 131.448813202917 39.5499999999993
    vertex 169.128524799863 131.448813202917 30.5499999999993
  endloop
endfacet
facet normal 0.79335334029133 -0.608761429008597 0.0
  outer loop
    vertex 169.128524799863 131.448813202917 39.5499999999993
    vertex 169.398686458279 131.800894730934 30.5499999999993
    vertex 169.398686458279 131.800894730934 39.5499999999993
  endloop
endfacet
facet normal 0.923879532511286 -0.382683432365092 0.0
  outer loop
    vertex 169.128524799863 131.448813202917 30.5499999999993
    vertex 168.958694081605 131.038805579591 39.5499999999993
    vertex 168.958694081605 131.038805579591 30.5499999999993
  endloop
endfacet
facet normal 0.923879532511286 -0.382683432365092 0.0
  outer loop
    vertex 168.958694081605 131.038805579591 39.5499999999993
    vertex 169.128524799863 131.448813202917 30.5499999999993
    vertex 169.128524799863 131.448813202917 39.5499999999993
  endloop
endfacet
facet normal 0.9914448613738 -0.13052619222013 0.0
  outer loop
    vertex 168.958694081605 131.038805579591 30.5499999999993
    vertex 168.900767986296 130.598813202917 39.5499999999993
    vertex 168.900767986296 130.598813202917 30.5499999999993
  endloop
endfacet
facet normal 0.9914448613738 -0.13052619222013 0.0
  outer loop
    vertex 168.900767986296 130.598813202917 39.5499999999993
    vertex 168.958694081605 131.038805579591 30.5499999999993
    vertex 168.958694081605 131.038805579591 39.5499999999993
  endloop
endfacet
facet normal 0.991444861373817 0.130526192219998 0.0
  outer loop
    vertex 168.900767986296 130.598813202917 30.5499999999993
    vertex 168.958694081605 130.158820826242 39.5499999999993
    vertex 168.958694081605 130.158820826242 30.5499999999993
  endloop
endfacet
facet normal 0.991444861373817 0.130526192219998 0.0
  outer loop
    vertex 168.958694081605 130.158820826242 39.5499999999993
    vertex 168.900767986296 130.598813202917 30.5499999999993
    vertex 168.900767986296 130.598813202917 39.5499999999993
  endloop
endfacet
facet normal 0.923879532511295 0.382683432365069 0.0
  outer loop
    vertex 168.958694081605 130.158820826242 30.5499999999993
    vertex 169.128524799863 129.748813202917 39.5499999999993
    vertex 169.128524799863 129.748813202917 30.5499999999993
  endloop
endfacet
facet normal 0.923879532511295 0.382683432365069 0.0
  outer loop
    vertex 169.128524799863 129.748813202917 39.5499999999993
    vertex 168.958694081605 130.158820826242 30.5499999999993
    vertex 168.958694081605 130.158820826242 39.5499999999993
  endloop
endfacet
facet normal 0.793353340291152 0.608761429008829 0.0
  outer loop
    vertex 169.128524799863 129.748813202917 30.5499999999993
    vertex 169.398686458279 129.396731674899 39.5499999999993
    vertex 169.398686458279 129.396731674899 30.5499999999993
  endloop
endfacet
facet normal 0.793353340291152 0.608761429008829 0.0
  outer loop
    vertex 169.398686458279 129.396731674899 39.5499999999993
    vertex 169.128524799863 129.748813202917 30.5499999999993
    vertex 169.128524799863 129.748813202917 39.5499999999993
  endloop
endfacet
facet normal 0.608761429008836 0.793353340291146 0.0
  outer loop
    vertex 169.398686458279 129.396731674899 39.5499999999993
    vertex 169.750767986296 129.126570016483 30.5499999999993
    vertex 169.398686458279 129.396731674899 30.5499999999993
  endloop
endfacet
facet normal 0.608761429008836 0.793353340291146 0.0
  outer loop
    vertex 169.750767986296 129.126570016483 30.5499999999993
    vertex 169.398686458279 129.396731674899 39.5499999999993
    vertex 169.750767986296 129.126570016483 39.5499999999993
  endloop
endfacet
facet normal 0.382683432365006 0.923879532511321 0.0
  outer loop
    vertex 169.750767986296 129.126570016483 39.5499999999993
    vertex 170.160775609622 128.956739298225 30.5499999999993
    vertex 169.750767986296 129.126570016483 30.5499999999993
  endloop
endfacet
facet normal 0.382683432365006 0.923879532511321 0.0
  outer loop
    vertex 170.160775609622 128.956739298225 30.5499999999993
    vertex 169.750767986296 129.126570016483 39.5499999999993
    vertex 170.160775609622 128.956739298225 39.5499999999993
  endloop
endfacet
facet normal 0.130526192220192 0.991444861373792 0.0
  outer loop
    vertex 170.160775609622 128.956739298225 39.5499999999993
    vertex 170.600767986296 128.898813202917 30.5499999999993
    vertex 170.160775609622 128.956739298225 30.5499999999993
  endloop
endfacet
facet normal 0.130526192220192 0.991444861373792 0.0
  outer loop
    vertex 170.600767986296 128.898813202917 30.5499999999993
    vertex 170.160775609622 128.956739298225 39.5499999999993
    vertex 170.600767986296 128.898813202917 39.5499999999993
  endloop
endfacet
facet normal -0.130526192219946 0.991444861373824 0.0
  outer loop
    vertex 170.600767986296 128.898813202917 39.5499999999993
    vertex 171.04076036297 128.956739298225 30.5499999999993
    vertex 170.600767986296 128.898813202917 30.5499999999993
  endloop
endfacet
facet normal -0.130526192219946 0.991444861373824 0.0
  outer loop
    vertex 171.04076036297 128.956739298225 30.5499999999993
    vertex 170.600767986296 128.898813202917 39.5499999999993
    vertex 171.04076036297 128.956739298225 39.5499999999993
  endloop
endfacet
facet normal -0.382683432365158 0.923879532511258 0.0
  outer loop
    vertex 171.04076036297 128.956739298225 39.5499999999993
    vertex 171.450767986296 129.126570016483 30.5499999999993
    vertex 171.04076036297 128.956739298225 30.5499999999993
  endloop
endfacet
facet normal -0.382683432365158 0.923879532511258 0.0
  outer loop
    vertex 171.450767986296 129.126570016483 30.5499999999993
    vertex 171.04076036297 128.956739298225 39.5499999999993
    vertex 171.450767986296 129.126570016483 39.5499999999993
  endloop
endfacet
facet normal -0.608761429008794 0.793353340291179 0.0
  outer loop
    vertex 171.450767986296 129.126570016483 39.5499999999993
    vertex 171.802849514313 129.396731674899 30.5499999999993
    vertex 171.450767986296 129.126570016483 30.5499999999993
  endloop
endfacet
facet normal -0.608761429008794 0.793353340291179 0.0
  outer loop
    vertex 171.802849514313 129.396731674899 30.5499999999993
    vertex 171.450767986296 129.126570016483 39.5499999999993
    vertex 171.802849514313 129.396731674899 39.5499999999993
  endloop
endfacet
facet normal -0.793353340291303 0.608761429008632 0.0
  outer loop
    vertex 172.07301117273 129.748813202917 39.5499999999993
    vertex 171.802849514313 129.396731674899 30.5499999999993
    vertex 171.802849514313 129.396731674899 39.5499999999993
  endloop
endfacet
facet normal -0.793353340291303 0.608761429008632 0.0
  outer loop
    vertex 171.802849514313 129.396731674899 30.5499999999993
    vertex 172.07301117273 129.748813202917 39.5499999999993
    vertex 172.07301117273 129.748813202917 30.5499999999993
  endloop
endfacet
facet normal -0.923879532511191 0.382683432365321 0.0
  outer loop
    vertex 172.242841890988 130.158820826242 39.5499999999993
    vertex 172.07301117273 129.748813202917 30.5499999999993
    vertex 172.07301117273 129.748813202917 39.5499999999993
  endloop
endfacet
facet normal -0.923879532511191 0.382683432365321 0.0
  outer loop
    vertex 172.07301117273 129.748813202917 30.5499999999993
    vertex 172.242841890988 130.158820826242 39.5499999999993
    vertex 172.242841890988 130.158820826242 30.5499999999993
  endloop
endfacet
facet normal -0.991444861373846 0.130526192219779 0.0
  outer loop
    vertex 172.300767986296 130.598813202917 39.5499999999993
    vertex 172.242841890988 130.158820826242 30.5499999999993
    vertex 172.242841890988 130.158820826242 39.5499999999993
  endloop
endfacet
facet normal -0.991444861373846 0.130526192219779 0.0
  outer loop
    vertex 172.242841890988 130.158820826242 30.5499999999993
    vertex 172.300767986296 130.598813202917 39.5499999999993
    vertex 172.300767986296 130.598813202917 30.5499999999993
  endloop
endfacet
facet normal -0.99144486137385 -0.130526192219755 0.0
  outer loop
    vertex 172.242841890988 131.038805579591 39.5499999999993
    vertex 172.300767986296 130.598813202917 30.5499999999993
    vertex 172.300767986296 130.598813202917 39.5499999999993
  endloop
endfacet
facet normal -0.99144486137385 -0.130526192219755 0.0
  outer loop
    vertex 172.300767986296 130.598813202917 30.5499999999993
    vertex 172.242841890988 131.038805579591 39.5499999999993
    vertex 172.242841890988 131.038805579591 30.5499999999993
  endloop
endfacet
facet normal -0.923879532511222 -0.382683432365247 0.0
  outer loop
    vertex 172.07301117273 131.448813202917 39.5499999999993
    vertex 172.242841890988 131.038805579591 30.5499999999993
    vertex 172.242841890988 131.038805579591 39.5499999999993
  endloop
endfacet
facet normal -0.923879532511222 -0.382683432365247 0.0
  outer loop
    vertex 172.242841890988 131.038805579591 30.5499999999993
    vertex 172.07301117273 131.448813202917 39.5499999999993
    vertex 172.07301117273 131.448813202917 30.5499999999993
  endloop
endfacet
facet normal -0.793353340291278 -0.608761429008665 0.0
  outer loop
    vertex 171.802849514313 131.800894730934 39.5499999999993
    vertex 172.07301117273 131.448813202917 30.5499999999993
    vertex 172.07301117273 131.448813202917 39.5499999999993
  endloop
endfacet
facet normal -0.793353340291278 -0.608761429008665 0.0
  outer loop
    vertex 172.07301117273 131.448813202917 30.5499999999993
    vertex 171.802849514313 131.800894730934 39.5499999999993
    vertex 171.802849514313 131.800894730934 30.5499999999993
  endloop
endfacet
facet normal -0.60876142900859 -0.793353340291336 0.0
  outer loop
    vertex 171.802849514313 131.800894730934 39.5499999999993
    vertex 171.450767986296 132.07105638935 30.5499999999993
    vertex 171.802849514313 131.800894730934 30.5499999999993
  endloop
endfacet
facet normal -0.60876142900859 -0.793353340291336 0.0
  outer loop
    vertex 171.450767986296 132.07105638935 30.5499999999993
    vertex 171.802849514313 131.800894730934 39.5499999999993
    vertex 171.450767986296 132.07105638935 39.5499999999993
  endloop
endfacet
facet normal -0.382683432365247 -0.923879532511222 0.0
  outer loop
    vertex 171.450767986296 132.07105638935 39.5499999999993
    vertex 171.04076036297 132.240887107608 30.5499999999993
    vertex 171.450767986296 132.07105638935 30.5499999999993
  endloop
endfacet
facet normal -0.382683432365247 -0.923879532511222 0.0
  outer loop
    vertex 171.04076036297 132.240887107608 30.5499999999993
    vertex 171.450767986296 132.07105638935 39.5499999999993
    vertex 171.04076036297 132.240887107608 39.5499999999993
  endloop
endfacet
facet normal -0.991444861373807 0.130526192220079 0.0
  outer loop
    vertex 148.702990507429 135.375270338224 37.0499999999994
    vertex 148.600767986296 134.598813202917 33.0499999999993
    vertex 148.600767986296 134.598813202917 37.0499999999994
  endloop
endfacet
facet normal -0.991444861373807 0.130526192220079 0.0
  outer loop
    vertex 148.600767986296 134.598813202917 33.0499999999993
    vertex 148.702990507429 135.375270338224 37.0499999999994
    vertex 148.702990507429 135.375270338224 33.0499999999993
  endloop
endfacet
facet normal -0.923879532511325 0.382683432364998 0.0
  outer loop
    vertex 149.002691774943 136.098813202917 37.0499999999994
    vertex 148.702990507429 135.375270338224 33.0499999999993
    vertex 148.702990507429 135.375270338224 37.0499999999994
  endloop
endfacet
facet normal -0.923879532511325 0.382683432364998 0.0
  outer loop
    vertex 148.702990507429 135.375270338224 33.0499999999993
    vertex 149.002691774943 136.098813202917 37.0499999999994
    vertex 149.002691774943 136.098813202917 33.0499999999993
  endloop
endfacet
facet normal -0.793353340291176 0.608761429008798 0.0
  outer loop
    vertex 149.479447642736 136.720133546476 37.0499999999994
    vertex 149.002691774943 136.098813202917 33.0499999999993
    vertex 149.002691774943 136.098813202917 37.0499999999994
  endloop
endfacet
facet normal -0.793353340291176 0.608761429008798 0.0
  outer loop
    vertex 149.002691774943 136.098813202917 33.0499999999993
    vertex 149.479447642736 136.720133546476 37.0499999999994
    vertex 149.479447642736 136.720133546476 33.0499999999993
  endloop
endfacet
facet normal -0.608761429008766 0.793353340291201 0.0
  outer loop
    vertex 149.479447642736 136.720133546476 37.0499999999994
    vertex 150.100767986296 137.19688941427 33.0499999999993
    vertex 149.479447642736 136.720133546476 33.0499999999993
  endloop
endfacet
facet normal -0.608761429008766 0.793353340291201 0.0
  outer loop
    vertex 150.100767986296 137.19688941427 33.0499999999993
    vertex 149.479447642736 136.720133546476 37.0499999999994
    vertex 150.100767986296 137.19688941427 37.0499999999994
  endloop
endfacet
facet normal -0.382683432365039 0.923879532511308 0.0
  outer loop
    vertex 150.100767986296 137.19688941427 37.0499999999994
    vertex 150.824310850989 137.496590681784 33.0499999999993
    vertex 150.100767986296 137.19688941427 33.0499999999993
  endloop
endfacet
facet normal -0.382683432365039 0.923879532511308 0.0
  outer loop
    vertex 150.824310850989 137.496590681784 33.0499999999993
    vertex 150.100767986296 137.19688941427 37.0499999999994
    vertex 150.824310850989 137.496590681784 37.0499999999994
  endloop
endfacet
facet normal -0.130526192220112 0.991444861373803 0.0
  outer loop
    vertex 150.824310850989 137.496590681784 37.0499999999994
    vertex 151.600767986296 137.598813202917 33.0499999999993
    vertex 150.824310850989 137.496590681784 33.0499999999993
  endloop
endfacet
facet normal -0.130526192220112 0.991444861373803 0.0
  outer loop
    vertex 151.600767986296 137.598813202917 33.0499999999993
    vertex 150.824310850989 137.496590681784 37.0499999999994
    vertex 151.600767986296 137.598813202917 37.0499999999994
  endloop
endfacet
facet normal 0.130526192220054 0.99144486137381 0.0
  outer loop
    vertex 151.600767986296 137.598813202917 37.0499999999994
    vertex 152.377225121604 137.496590681784 33.0499999999993
    vertex 151.600767986296 137.598813202917 33.0499999999993
  endloop
endfacet
facet normal 0.130526192220054 0.99144486137381 0.0
  outer loop
    vertex 152.377225121604 137.496590681784 33.0499999999993
    vertex 151.600767986296 137.598813202917 37.0499999999994
    vertex 152.377225121604 137.496590681784 37.0499999999994
  endloop
endfacet
facet normal 0.382683432365069 0.923879532511295 0.0
  outer loop
    vertex 152.377225121604 137.496590681784 37.0499999999994
    vertex 153.100767986296 137.19688941427 33.0499999999993
    vertex 152.377225121604 137.496590681784 33.0499999999993
  endloop
endfacet
facet normal 0.382683432365069 0.923879532511295 0.0
  outer loop
    vertex 153.100767986296 137.19688941427 33.0499999999993
    vertex 152.377225121604 137.496590681784 37.0499999999994
    vertex 153.100767986296 137.19688941427 37.0499999999994
  endloop
endfacet
facet normal 0.608761429008733 0.793353340291226 0.0
  outer loop
    vertex 153.100767986296 137.19688941427 37.0499999999994
    vertex 153.722088329856 136.720133546476 33.0499999999993
    vertex 153.100767986296 137.19688941427 33.0499999999993
  endloop
endfacet
facet normal 0.608761429008733 0.793353340291226 0.0
  outer loop
    vertex 153.722088329856 136.720133546476 33.0499999999993
    vertex 153.100767986296 137.19688941427 37.0499999999994
    vertex 153.722088329856 136.720133546476 37.0499999999994
  endloop
endfacet
facet normal 0.793353340291223 0.608761429008737 0.0
  outer loop
    vertex 153.722088329856 136.720133546476 33.0499999999993
    vertex 154.198844197649 136.098813202917 37.0499999999994
    vertex 154.198844197649 136.098813202917 33.0499999999993
  endloop
endfacet
facet normal 0.793353340291223 0.608761429008737 0.0
  outer loop
    vertex 154.198844197649 136.098813202917 37.0499999999994
    vertex 153.722088329856 136.720133546476 33.0499999999993
    vertex 153.722088329856 136.720133546476 37.0499999999994
  endloop
endfacet
facet normal 0.923879532511356 0.382683432364922 0.0
  outer loop
    vertex 154.198844197649 136.098813202917 33.0499999999993
    vertex 154.498545465163 135.375270338224 37.0499999999994
    vertex 154.498545465163 135.375270338224 33.0499999999993
  endloop
endfacet
facet normal 0.923879532511356 0.382683432364922 0.0
  outer loop
    vertex 154.498545465163 135.375270338224 37.0499999999994
    vertex 154.198844197649 136.098813202917 33.0499999999993
    vertex 154.198844197649 136.098813202917 37.0499999999994
  endloop
endfacet
facet normal 0.991444861373796 0.130526192220164 0.0
  outer loop
    vertex 154.498545465163 135.375270338224 33.0499999999993
    vertex 154.600767986296 134.598813202917 37.0499999999994
    vertex 154.600767986296 134.598813202917 33.0499999999993
  endloop
endfacet
facet normal 0.991444861373796 0.130526192220164 0.0
  outer loop
    vertex 154.600767986296 134.598813202917 37.0499999999994
    vertex 154.498545465163 135.375270338224 33.0499999999993
    vertex 154.498545465163 135.375270338224 37.0499999999994
  endloop
endfacet
facet normal 1.0 -1.54007769500209e-014 0.0
  outer loop
    vertex 154.600767986296 134.598813202917 33.0499999999993
    vertex 154.600767986296 131.598813202917 37.0499999999994
    vertex 154.600767986296 131.598813202917 33.0499999999993
  endloop
endfacet
facet normal 1.0 -1.54007769500209e-014 0.0
  outer loop
    vertex 154.600767986296 131.598813202917 37.0499999999994
    vertex 154.600767986296 134.598813202917 33.0499999999993
    vertex 154.600767986296 134.598813202917 37.0499999999994
  endloop
endfacet
facet normal -0.130526192220011 -0.991444861373816 0.0
  outer loop
    vertex 151.924291792674 135.806220485778 37.0499999999994
    vertex 151.600767986296 135.848813202917 33.0499999999993
    vertex 151.924291792674 135.806220485778 33.0499999999993
  endloop
endfacet
facet normal -0.130526192220011 -0.991444861373816 0.0
  outer loop
    vertex 151.600767986296 135.848813202917 33.0499999999993
    vertex 151.924291792674 135.806220485778 37.0499999999994
    vertex 151.600767986296 135.848813202917 37.0499999999994
  endloop
endfacet
facet normal 0.130526192219996 -0.991444861373818 0.0
  outer loop
    vertex 151.600767986296 135.848813202917 37.0499999999994
    vertex 151.277244179918 135.806220485778 33.0499999999993
    vertex 151.600767986296 135.848813202917 33.0499999999993
  endloop
endfacet
facet normal 0.130526192219996 -0.991444861373818 0.0
  outer loop
    vertex 151.277244179918 135.806220485778 33.0499999999993
    vertex 151.600767986296 135.848813202917 37.0499999999994
    vertex 151.277244179918 135.806220485778 37.0499999999994
  endloop
endfacet
facet normal 0.382683432365151 -0.923879532511262 0.0
  outer loop
    vertex 151.277244179918 135.806220485778 37.0499999999994
    vertex 150.975767986296 135.681344957647 33.0499999999993
    vertex 151.277244179918 135.806220485778 33.0499999999993
  endloop
endfacet
facet normal 0.382683432365151 -0.923879532511262 0.0
  outer loop
    vertex 150.975767986296 135.681344957647 33.0499999999993
    vertex 151.277244179918 135.806220485778 37.0499999999994
    vertex 150.975767986296 135.681344957647 37.0499999999994
  endloop
endfacet
facet normal 0.608761429008848 -0.793353340291138 0.0
  outer loop
    vertex 150.975767986296 135.681344957647 37.0499999999994
    vertex 150.716884509813 135.4826966794 33.0499999999993
    vertex 150.975767986296 135.681344957647 33.0499999999993
  endloop
endfacet
facet normal 0.608761429008848 -0.793353340291138 0.0
  outer loop
    vertex 150.716884509813 135.4826966794 33.0499999999993
    vertex 150.975767986296 135.681344957647 37.0499999999994
    vertex 150.716884509813 135.4826966794 37.0499999999994
  endloop
endfacet
facet normal 0.793353340291019 -0.608761429009002 0.0
  outer loop
    vertex 150.716884509813 135.4826966794 33.0499999999993
    vertex 150.518236231565 135.223813202917 37.0499999999994
    vertex 150.518236231565 135.223813202917 33.0499999999993
  endloop
endfacet
facet normal 0.793353340291019 -0.608761429009002 0.0
  outer loop
    vertex 150.518236231565 135.223813202917 37.0499999999994
    vertex 150.716884509813 135.4826966794 33.0499999999993
    vertex 150.716884509813 135.4826966794 37.0499999999994
  endloop
endfacet
facet normal 0.923879532511441 -0.382683432364718 0.0
  outer loop
    vertex 150.518236231565 135.223813202917 33.0499999999993
    vertex 150.393360703435 134.922337009295 37.0499999999994
    vertex 150.393360703435 134.922337009295 33.0499999999993
  endloop
endfacet
facet normal 0.923879532511441 -0.382683432364718 0.0
  outer loop
    vertex 150.393360703435 134.922337009295 37.0499999999994
    vertex 150.518236231565 135.223813202917 33.0499999999993
    vertex 150.518236231565 135.223813202917 37.0499999999994
  endloop
endfacet
facet normal 0.991444861373793 -0.130526192220187 0.0
  outer loop
    vertex 150.393360703435 134.922337009295 33.0499999999993
    vertex 150.350767986296 134.598813202917 37.0499999999994
    vertex 150.350767986296 134.598813202917 33.0499999999993
  endloop
endfacet
facet normal 0.991444861373793 -0.130526192220187 0.0
  outer loop
    vertex 150.350767986296 134.598813202917 37.0499999999994
    vertex 150.393360703435 134.922337009295 33.0499999999993
    vertex 150.393360703435 134.922337009295 37.0499999999994
  endloop
endfacet
facet normal 0.991444861373816 0.130526192220011 0.0
  outer loop
    vertex 150.350767986296 134.598813202917 33.0499999999993
    vertex 150.393360703435 134.275289396538 37.0499999999994
    vertex 150.393360703435 134.275289396538 33.0499999999993
  endloop
endfacet
facet normal 0.991444861373816 0.130526192220011 0.0
  outer loop
    vertex 150.393360703435 134.275289396538 37.0499999999994
    vertex 150.350767986296 134.598813202917 33.0499999999993
    vertex 150.350767986296 134.598813202917 37.0499999999994
  endloop
endfacet
facet normal 0.923879532511395 0.382683432364828 0.0
  outer loop
    vertex 150.393360703435 134.275289396538 33.0499999999993
    vertex 150.518236231565 133.973813202917 37.0499999999994
    vertex 150.518236231565 133.973813202917 33.0499999999993
  endloop
endfacet
facet normal 0.923879532511395 0.382683432364828 0.0
  outer loop
    vertex 150.518236231565 133.973813202917 37.0499999999994
    vertex 150.393360703435 134.275289396538 33.0499999999993
    vertex 150.393360703435 134.275289396538 37.0499999999994
  endloop
endfacet
facet normal 0.793353340291072 0.608761429008934 0.0
  outer loop
    vertex 150.518236231565 133.973813202917 33.0499999999993
    vertex 150.716884509813 133.714929726433 37.0499999999994
    vertex 150.716884509813 133.714929726433 33.0499999999993
  endloop
endfacet
facet normal 0.793353340291072 0.608761429008934 0.0
  outer loop
    vertex 150.716884509813 133.714929726433 37.0499999999994
    vertex 150.518236231565 133.973813202917 33.0499999999993
    vertex 150.518236231565 133.973813202917 37.0499999999994
  endloop
endfacet
facet normal 0.608761429008834 0.793353340291148 0.0
  outer loop
    vertex 150.716884509813 133.714929726433 37.0499999999994
    vertex 150.975767986296 133.516281448186 33.0499999999993
    vertex 150.716884509813 133.714929726433 33.0499999999993
  endloop
endfacet
facet normal 0.608761429008834 0.793353340291148 0.0
  outer loop
    vertex 150.975767986296 133.516281448186 33.0499999999993
    vertex 150.716884509813 133.714929726433 37.0499999999994
    vertex 150.975767986296 133.516281448186 37.0499999999994
  endloop
endfacet
facet normal 0.382683432365191 0.923879532511245 0.0
  outer loop
    vertex 150.975767986296 133.516281448186 37.0499999999994
    vertex 151.277244179918 133.391405920055 33.0499999999993
    vertex 150.975767986296 133.516281448186 33.0499999999993
  endloop
endfacet
facet normal 0.382683432365191 0.923879532511245 0.0
  outer loop
    vertex 151.277244179918 133.391405920055 33.0499999999993
    vertex 150.975767986296 133.516281448186 37.0499999999994
    vertex 151.277244179918 133.391405920055 37.0499999999994
  endloop
endfacet
facet normal 0.130526192220029 0.991444861373813 0.0
  outer loop
    vertex 151.277244179918 133.391405920055 37.0499999999994
    vertex 151.600767986296 133.348813202917 33.0499999999993
    vertex 151.277244179918 133.391405920055 33.0499999999993
  endloop
endfacet
facet normal 0.130526192220029 0.991444861373813 0.0
  outer loop
    vertex 151.600767986296 133.348813202917 33.0499999999993
    vertex 151.277244179918 133.391405920055 37.0499999999994
    vertex 151.600767986296 133.348813202917 37.0499999999994
  endloop
endfacet
facet normal -0.130526192220447 0.991444861373759 0.0
  outer loop
    vertex 151.600767986296 133.348813202917 37.0499999999994
    vertex 151.924291792674 133.391405920055 33.0499999999993
    vertex 151.600767986296 133.348813202917 33.0499999999993
  endloop
endfacet
facet normal -0.130526192220447 0.991444861373759 0.0
  outer loop
    vertex 151.924291792674 133.391405920055 33.0499999999993
    vertex 151.600767986296 133.348813202917 37.0499999999994
    vertex 151.924291792674 133.391405920055 37.0499999999994
  endloop
endfacet
facet normal -0.382683432364536 0.923879532511516 0.0
  outer loop
    vertex 151.924291792674 133.391405920055 37.0499999999994
    vertex 152.225767986296 133.516281448186 33.0499999999993
    vertex 151.924291792674 133.391405920055 33.0499999999993
  endloop
endfacet
facet normal -0.382683432364536 0.923879532511516 0.0
  outer loop
    vertex 152.225767986296 133.516281448186 33.0499999999993
    vertex 151.924291792674 133.391405920055 37.0499999999994
    vertex 152.225767986296 133.516281448186 37.0499999999994
  endloop
endfacet
facet normal -0.608761429009023 0.793353340291003 0.0
  outer loop
    vertex 152.225767986296 133.516281448186 37.0499999999994
    vertex 152.484651462779 133.714929726434 33.0499999999993
    vertex 152.225767986296 133.516281448186 33.0499999999993
  endloop
endfacet
facet normal -0.608761429009023 0.793353340291003 0.0
  outer loop
    vertex 152.484651462779 133.714929726434 33.0499999999993
    vertex 152.225767986296 133.516281448186 37.0499999999994
    vertex 152.484651462779 133.714929726434 37.0499999999994
  endloop
endfacet
facet normal -0.793353340291148 0.608761429008834 0.0
  outer loop
    vertex 152.683299741027 133.973813202917 37.0499999999994
    vertex 152.484651462779 133.714929726434 33.0499999999993
    vertex 152.484651462779 133.714929726434 37.0499999999994
  endloop
endfacet
facet normal -0.793353340291148 0.608761429008834 0.0
  outer loop
    vertex 152.484651462779 133.714929726434 33.0499999999993
    vertex 152.683299741027 133.973813202917 37.0499999999994
    vertex 152.683299741027 133.973813202917 33.0499999999993
  endloop
endfacet
facet normal -0.923879532511224 0.382683432365241 0.0
  outer loop
    vertex 152.808175269157 134.275289396538 37.0499999999994
    vertex 152.683299741027 133.973813202917 33.0499999999993
    vertex 152.683299741027 133.973813202917 37.0499999999994
  endloop
endfacet
facet normal -0.923879532511224 0.382683432365241 0.0
  outer loop
    vertex 152.683299741027 133.973813202917 33.0499999999993
    vertex 152.808175269157 134.275289396538 37.0499999999994
    vertex 152.808175269157 134.275289396538 33.0499999999993
  endloop
endfacet
facet normal -0.991444861373818 0.130526192219992 0.0
  outer loop
    vertex 152.850767986296 134.598813202917 37.0499999999994
    vertex 152.808175269157 134.275289396538 33.0499999999993
    vertex 152.808175269157 134.275289396538 37.0499999999994
  endloop
endfacet
facet normal -0.991444861373818 0.130526192219992 0.0
  outer loop
    vertex 152.808175269157 134.275289396538 33.0499999999993
    vertex 152.850767986296 134.598813202917 37.0499999999994
    vertex 152.850767986296 134.598813202917 33.0499999999993
  endloop
endfacet
facet normal -0.991444861373802 -0.130526192220117 0.0
  outer loop
    vertex 152.808175269157 134.922337009295 37.0499999999994
    vertex 152.850767986296 134.598813202917 33.0499999999993
    vertex 152.850767986296 134.598813202917 37.0499999999994
  endloop
endfacet
facet normal -0.991444861373802 -0.130526192220117 0.0
  outer loop
    vertex 152.850767986296 134.598813202917 33.0499999999993
    vertex 152.808175269157 134.922337009295 37.0499999999994
    vertex 152.808175269157 134.922337009295 33.0499999999993
  endloop
endfacet
facet normal -0.923879532511295 -0.38268343236507 0.0
  outer loop
    vertex 152.683299741027 135.223813202917 37.0499999999994
    vertex 152.808175269157 134.922337009295 33.0499999999993
    vertex 152.808175269157 134.922337009295 37.0499999999994
  endloop
endfacet
facet normal -0.923879532511295 -0.38268343236507 0.0
  outer loop
    vertex 152.808175269157 134.922337009295 33.0499999999993
    vertex 152.683299741027 135.223813202917 37.0499999999994
    vertex 152.683299741027 135.223813202917 33.0499999999993
  endloop
endfacet
facet normal -0.793353340291159 -0.608761429008821 0.0
  outer loop
    vertex 152.484651462779 135.4826966794 37.0499999999994
    vertex 152.683299741027 135.223813202917 33.0499999999993
    vertex 152.683299741027 135.223813202917 37.0499999999994
  endloop
endfacet
facet normal -0.793353340291159 -0.608761429008821 0.0
  outer loop
    vertex 152.683299741027 135.223813202917 33.0499999999993
    vertex 152.484651462779 135.4826966794 37.0499999999994
    vertex 152.484651462779 135.4826966794 33.0499999999993
  endloop
endfacet
facet normal -0.608761429008766 -0.793353340291201 0.0
  outer loop
    vertex 152.484651462779 135.4826966794 37.0499999999994
    vertex 152.225767986296 135.681344957647 33.0499999999993
    vertex 152.484651462779 135.4826966794 33.0499999999993
  endloop
endfacet
facet normal -0.608761429008766 -0.793353340291201 0.0
  outer loop
    vertex 152.225767986296 135.681344957647 33.0499999999993
    vertex 152.484651462779 135.4826966794 37.0499999999994
    vertex 152.225767986296 135.681344957647 37.0499999999994
  endloop
endfacet
facet normal -0.382683432364949 -0.923879532511345 0.0
  outer loop
    vertex 152.225767986296 135.681344957647 37.0499999999994
    vertex 151.924291792674 135.806220485778 33.0499999999993
    vertex 152.225767986296 135.681344957647 33.0499999999993
  endloop
endfacet
facet normal -0.382683432364949 -0.923879532511345 0.0
  outer loop
    vertex 151.924291792674 135.806220485778 33.0499999999993
    vertex 152.225767986296 135.681344957647 37.0499999999994
    vertex 151.924291792674 135.806220485778 37.0499999999994
  endloop
endfacet
facet normal 0.0 0.0 1.0
  outer loop
    vertex 148.600767986296 131.598813202917 37.0499999999994
    vertex 148.702990507429 135.375270338224 37.0499999999994
    vertex 148.600767986296 134.598813202917 37.0499999999994
  endloop
endfacet
facet normal 0.0 0.0 1.0
  outer loop
    vertex 148.702990507429 135.375270338224 37.0499999999994
    vertex 148.600767986296 131.598813202917 37.0499999999994
    vertex 150.716884509813 133.714929726433 37.0499999999994
  endloop
endfacet
facet normal 0.0 0.0 1.0
  outer loop
    vertex 150.716884509813 133.714929726433 37.0499999999994
    vertex 148.600767986296 131.598813202917 37.0499999999994
    vertex 150.975767986296 133.516281448186 37.0499999999994
  endloop
endfacet
facet normal 0.0 0.0 1.0
  outer loop
    vertex 150.975767986296 133.516281448186 37.0499999999994
    vertex 148.600767986296 131.598813202917 37.0499999999994
    vertex 154.600767986296 131.598813202917 37.0499999999994
  endloop
endfacet
facet normal 0.0 0.0 1.0
  outer loop
    vertex 148.702990507429 135.375270338224 37.0499999999994
    vertex 150.716884509813 133.714929726433 37.0499999999994
    vertex 150.518236231565 133.973813202917 37.0499999999994
  endloop
endfacet
facet normal 0.0 0.0 1.0
  outer loop
    vertex 148.702990507429 135.375270338224 37.0499999999994
    vertex 150.518236231565 133.973813202917 37.0499999999994
    vertex 149.002691774943 136.098813202917 37.0499999999994
  endloop
endfacet
facet normal 0.0 0.0 1.0
  outer loop
    vertex 149.002691774943 136.098813202917 37.0499999999994
    vertex 150.518236231565 133.973813202917 37.0499999999994
    vertex 150.393360703435 134.275289396538 37.0499999999994
  endloop
endfacet
facet normal 0.0 0.0 1.0
  outer loop
    vertex 149.002691774943 136.098813202917 37.0499999999994
    vertex 150.393360703435 134.275289396538 37.0499999999994
    vertex 149.479447642736 136.720133546476 37.0499999999994
  endloop
endfacet
facet normal 0.0 0.0 1.0
  outer loop
    vertex 149.479447642736 136.720133546476 37.0499999999994
    vertex 150.393360703435 134.275289396538 37.0499999999994
    vertex 150.350767986296 134.598813202917 37.0499999999994
  endloop
endfacet
facet normal 0.0 0.0 1.0
  outer loop
    vertex 149.479447642736 136.720133546476 37.0499999999994
    vertex 150.350767986296 134.598813202917 37.0499999999994
    vertex 150.100767986296 137.19688941427 37.0499999999994
  endloop
endfacet
facet normal 0.0 0.0 1.0
  outer loop
    vertex 150.975767986296 133.516281448186 37.0499999999994
    vertex 154.600767986296 131.598813202917 37.0499999999994
    vertex 151.277244179918 133.391405920055 37.0499999999994
  endloop
endfacet
facet normal 0.0 0.0 1.0
  outer loop
    vertex 151.277244179918 133.391405920055 37.0499999999994
    vertex 154.600767986296 131.598813202917 37.0499999999994
    vertex 151.600767986296 133.348813202917 37.0499999999994
  endloop
endfacet
facet normal 0.0 0.0 1.0
  outer loop
    vertex 151.600767986296 133.348813202917 37.0499999999994
    vertex 154.600767986296 131.598813202917 37.0499999999994
    vertex 151.924291792674 133.391405920055 37.0499999999994
  endloop
endfacet
facet normal 0.0 0.0 1.0
  outer loop
    vertex 151.924291792674 133.391405920055 37.0499999999994
    vertex 154.600767986296 131.598813202917 37.0499999999994
    vertex 152.225767986296 133.516281448186 37.0499999999994
  endloop
endfacet
facet normal 0.0 0.0 1.0
  outer loop
    vertex 152.225767986296 133.516281448186 37.0499999999994
    vertex 154.600767986296 131.598813202917 37.0499999999994
    vertex 152.484651462779 133.714929726434 37.0499999999994
  endloop
endfacet
facet normal 0.0 0.0 1.0
  outer loop
    vertex 152.484651462779 133.714929726434 37.0499999999994
    vertex 154.600767986296 131.598813202917 37.0499999999994
    vertex 152.683299741027 133.973813202917 37.0499999999994
  endloop
endfacet
facet normal 0.0 0.0 1.0
  outer loop
    vertex 152.683299741027 133.973813202917 37.0499999999994
    vertex 154.600767986296 131.598813202917 37.0499999999994
    vertex 152.808175269157 134.275289396538 37.0499999999994
  endloop
endfacet
facet normal 0.0 0.0 1.0
  outer loop
    vertex 152.808175269157 134.275289396538 37.0499999999994
    vertex 154.600767986296 131.598813202917 37.0499999999994
    vertex 152.850767986296 134.598813202917 37.0499999999994
  endloop
endfacet
facet normal 0.0 0.0 1.0
  outer loop
    vertex 152.850767986296 134.598813202917 37.0499999999994
    vertex 154.600767986296 131.598813202917 37.0499999999994
    vertex 153.100767986296 137.19688941427 37.0499999999994
  endloop
endfacet
facet normal 0.0 0.0 1.0
  outer loop
    vertex 153.100767986296 137.19688941427 37.0499999999994
    vertex 154.600767986296 131.598813202917 37.0499999999994
    vertex 153.722088329856 136.720133546476 37.0499999999994
  endloop
endfacet
facet normal 0.0 0.0 1.0
  outer loop
    vertex 153.722088329856 136.720133546476 37.0499999999994
    vertex 154.600767986296 131.598813202917 37.0499999999994
    vertex 154.198844197649 136.098813202917 37.0499999999994
  endloop
endfacet
facet normal 0.0 0.0 1.0
  outer loop
    vertex 154.198844197649 136.098813202917 37.0499999999994
    vertex 154.600767986296 131.598813202917 37.0499999999994
    vertex 154.498545465163 135.375270338224 37.0499999999994
  endloop
endfacet
facet normal 0.0 0.0 1.0
  outer loop
    vertex 154.498545465163 135.375270338224 37.0499999999994
    vertex 154.600767986296 131.598813202917 37.0499999999994
    vertex 154.600767986296 134.598813202917 37.0499999999994
  endloop
endfacet
facet normal 0.0 0.0 1.0
  outer loop
    vertex 150.100767986296 137.19688941427 37.0499999999994
    vertex 150.393360703435 134.922337009295 37.0499999999994
    vertex 150.824310850989 137.496590681784 37.0499999999994
  endloop
endfacet
facet normal 0.0 0.0 1.0
  outer loop
    vertex 150.393360703435 134.922337009295 37.0499999999994
    vertex 150.100767986296 137.19688941427 37.0499999999994
    vertex 150.350767986296 134.598813202917 37.0499999999994
  endloop
endfacet
facet normal 0.0 0.0 1.0
  outer loop
    vertex 150.824310850989 137.496590681784 37.0499999999994
    vertex 150.393360703435 134.922337009295 37.0499999999994
    vertex 150.518236231565 135.223813202917 37.0499999999994
  endloop
endfacet
facet normal 0.0 0.0 1.0
  outer loop
    vertex 150.824310850989 137.496590681784 37.0499999999994
    vertex 150.518236231565 135.223813202917 37.0499999999994
    vertex 150.716884509813 135.4826966794 37.0499999999994
  endloop
endfacet
facet normal 0.0 0.0 1.0
  outer loop
    vertex 150.824310850989 137.496590681784 37.0499999999994
    vertex 150.716884509813 135.4826966794 37.0499999999994
    vertex 150.975767986296 135.681344957647 37.0499999999994
  endloop
endfacet
facet normal 0.0 0.0 1.0
  outer loop
    vertex 150.824310850989 137.496590681784 37.0499999999994
    vertex 150.975767986296 135.681344957647 37.0499999999994
    vertex 151.600767986296 137.598813202917 37.0499999999994
  endloop
endfacet
facet normal 0.0 0.0 1.0
  outer loop
    vertex 151.600767986296 137.598813202917 37.0499999999994
    vertex 150.975767986296 135.681344957647 37.0499999999994
    vertex 151.277244179918 135.806220485778 37.0499999999994
  endloop
endfacet
facet normal 0.0 0.0 1.0
  outer loop
    vertex 151.600767986296 137.598813202917 37.0499999999994
    vertex 151.277244179918 135.806220485778 37.0499999999994
    vertex 151.600767986296 135.848813202917 37.0499999999994
  endloop
endfacet
facet normal 0.0 0.0 1.0
  outer loop
    vertex 151.600767986296 137.598813202917 37.0499999999994
    vertex 151.600767986296 135.848813202917 37.0499999999994
    vertex 151.924291792674 135.806220485778 37.0499999999994
  endloop
endfacet
facet normal 0.0 0.0 1.0
  outer loop
    vertex 151.600767986296 137.598813202917 37.0499999999994
    vertex 151.924291792674 135.806220485778 37.0499999999994
    vertex 152.377225121604 137.496590681784 37.0499999999994
  endloop
endfacet
facet normal 0.0 0.0 1.0
  outer loop
    vertex 152.377225121604 137.496590681784 37.0499999999994
    vertex 151.924291792674 135.806220485778 37.0499999999994
    vertex 152.225767986296 135.681344957647 37.0499999999994
  endloop
endfacet
facet normal 0.0 0.0 1.0
  outer loop
    vertex 152.377225121604 137.496590681784 37.0499999999994
    vertex 152.225767986296 135.681344957647 37.0499999999994
    vertex 152.484651462779 135.4826966794 37.0499999999994
  endloop
endfacet
facet normal 0.0 0.0 1.0
  outer loop
    vertex 152.377225121604 137.496590681784 37.0499999999994
    vertex 152.484651462779 135.4826966794 37.0499999999994
    vertex 153.100767986296 137.19688941427 37.0499999999994
  endloop
endfacet
facet normal 0.0 0.0 1.0
  outer loop
    vertex 153.100767986296 137.19688941427 37.0499999999994
    vertex 152.484651462779 135.4826966794 37.0499999999994
    vertex 152.683299741027 135.223813202917 37.0499999999994
  endloop
endfacet
facet normal 0.0 0.0 1.0
  outer loop
    vertex 153.100767986296 137.19688941427 37.0499999999994
    vertex 152.683299741027 135.223813202917 37.0499999999994
    vertex 152.808175269157 134.922337009295 37.0499999999994
  endloop
endfacet
facet normal 0.0 0.0 1.0
  outer loop
    vertex 153.100767986296 137.19688941427 37.0499999999994
    vertex 152.808175269157 134.922337009295 37.0499999999994
    vertex 152.850767986296 134.598813202917 37.0499999999994
  endloop
endfacet
facet normal 0.0 0.0 -1.0
  outer loop
    vertex 150.100767986296 137.19688941427 33.0499999999993
    vertex 150.393360703435 134.922337009295 33.0499999999993
    vertex 150.350767986296 134.598813202917 33.0499999999993
  endloop
endfacet
facet normal 0.0 0.0 -1.0
  outer loop
    vertex 150.393360703435 134.922337009295 33.0499999999993
    vertex 150.100767986296 137.19688941427 33.0499999999993
    vertex 150.824310850989 137.496590681784 33.0499999999993
  endloop
endfacet
facet normal 0.0 0.0 -1.0
  outer loop
    vertex 150.393360703435 134.922337009295 33.0499999999993
    vertex 150.824310850989 137.496590681784 33.0499999999993
    vertex 150.518236231565 135.223813202917 33.0499999999993
  endloop
endfacet
facet normal 0.0 0.0 -1.0
  outer loop
    vertex 150.518236231565 135.223813202917 33.0499999999993
    vertex 150.824310850989 137.496590681784 33.0499999999993
    vertex 150.716884509813 135.4826966794 33.0499999999993
  endloop
endfacet
facet normal 0.0 0.0 -1.0
  outer loop
    vertex 150.716884509813 135.4826966794 33.0499999999993
    vertex 150.824310850989 137.496590681784 33.0499999999993
    vertex 150.975767986296 135.681344957647 33.0499999999993
  endloop
endfacet
facet normal 0.0 0.0 -1.0
  outer loop
    vertex 150.975767986296 135.681344957647 33.0499999999993
    vertex 150.824310850989 137.496590681784 33.0499999999993
    vertex 151.600767986296 137.598813202917 33.0499999999993
  endloop
endfacet
facet normal 0.0 0.0 -1.0
  outer loop
    vertex 150.975767986296 135.681344957647 33.0499999999993
    vertex 151.600767986296 137.598813202917 33.0499999999993
    vertex 151.277244179918 135.806220485778 33.0499999999993
  endloop
endfacet
facet normal 0.0 0.0 -1.0
  outer loop
    vertex 151.277244179918 135.806220485778 33.0499999999993
    vertex 151.600767986296 137.598813202917 33.0499999999993
    vertex 151.600767986296 135.848813202917 33.0499999999993
  endloop
endfacet
facet normal 0.0 0.0 -1.0
  outer loop
    vertex 151.600767986296 135.848813202917 33.0499999999993
    vertex 151.600767986296 137.598813202917 33.0499999999993
    vertex 151.924291792674 135.806220485778 33.0499999999993
  endloop
endfacet
facet normal 0.0 0.0 -1.0
  outer loop
    vertex 151.924291792674 135.806220485778 33.0499999999993
    vertex 151.600767986296 137.598813202917 33.0499999999993
    vertex 152.377225121604 137.496590681784 33.0499999999993
  endloop
endfacet
facet normal 0.0 0.0 -1.0
  outer loop
    vertex 151.924291792674 135.806220485778 33.0499999999993
    vertex 152.377225121604 137.496590681784 33.0499999999993
    vertex 152.225767986296 135.681344957647 33.0499999999993
  endloop
endfacet
facet normal 0.0 0.0 -1.0
  outer loop
    vertex 152.225767986296 135.681344957647 33.0499999999993
    vertex 152.377225121604 137.496590681784 33.0499999999993
    vertex 152.484651462779 135.4826966794 33.0499999999993
  endloop
endfacet
facet normal 0.0 0.0 -1.0
  outer loop
    vertex 152.484651462779 135.4826966794 33.0499999999993
    vertex 152.377225121604 137.496590681784 33.0499999999993
    vertex 153.100767986296 137.19688941427 33.0499999999993
  endloop
endfacet
facet normal 0.0 0.0 -1.0
  outer loop
    vertex 152.484651462779 135.4826966794 33.0499999999993
    vertex 153.100767986296 137.19688941427 33.0499999999993
    vertex 152.683299741027 135.223813202917 33.0499999999993
  endloop
endfacet
facet normal 0.0 0.0 -1.0
  outer loop
    vertex 152.683299741027 135.223813202917 33.0499999999993
    vertex 153.100767986296 137.19688941427 33.0499999999993
    vertex 152.808175269157 134.922337009295 33.0499999999993
  endloop
endfacet
facet normal 0.0 0.0 -1.0
  outer loop
    vertex 152.808175269157 134.922337009295 33.0499999999993
    vertex 153.100767986296 137.19688941427 33.0499999999993
    vertex 152.850767986296 134.598813202917 33.0499999999993
  endloop
endfacet
facet normal 0.0 0.0 -1.0
  outer loop
    vertex 148.702990507429 135.375270338224 33.0499999999993
    vertex 148.600767986296 131.598813202917 33.0499999999993
    vertex 148.600767986296 134.598813202917 33.0499999999993
  endloop
endfacet
facet normal 0.0 0.0 -1.0
  outer loop
    vertex 148.600767986296 131.598813202917 33.0499999999993
    vertex 148.702990507429 135.375270338224 33.0499999999993
    vertex 150.716884509813 133.714929726433 33.0499999999993
  endloop
endfacet
facet normal 0.0 0.0 -1.0
  outer loop
    vertex 148.600767986296 131.598813202917 33.0499999999993
    vertex 150.716884509813 133.714929726433 33.0499999999993
    vertex 150.975767986296 133.516281448186 33.0499999999993
  endloop
endfacet
facet normal 0.0 0.0 -1.0
  outer loop
    vertex 148.600767986296 131.598813202917 33.0499999999993
    vertex 150.975767986296 133.516281448186 33.0499999999993
    vertex 154.600767986296 131.598813202917 33.0499999999993
  endloop
endfacet
facet normal 0.0 0.0 -1.0
  outer loop
    vertex 150.716884509813 133.714929726433 33.0499999999993
    vertex 148.702990507429 135.375270338224 33.0499999999993
    vertex 150.518236231565 133.973813202917 33.0499999999993
  endloop
endfacet
facet normal 0.0 0.0 -1.0
  outer loop
    vertex 150.518236231565 133.973813202917 33.0499999999993
    vertex 148.702990507429 135.375270338224 33.0499999999993
    vertex 149.002691774943 136.098813202917 33.0499999999993
  endloop
endfacet
facet normal 0.0 0.0 -1.0
  outer loop
    vertex 150.518236231565 133.973813202917 33.0499999999993
    vertex 149.002691774943 136.098813202917 33.0499999999993
    vertex 150.393360703435 134.275289396538 33.0499999999993
  endloop
endfacet
facet normal 0.0 0.0 -1.0
  outer loop
    vertex 150.393360703435 134.275289396538 33.0499999999993
    vertex 149.002691774943 136.098813202917 33.0499999999993
    vertex 149.479447642736 136.720133546476 33.0499999999993
  endloop
endfacet
facet normal 0.0 0.0 -1.0
  outer loop
    vertex 150.393360703435 134.275289396538 33.0499999999993
    vertex 149.479447642736 136.720133546476 33.0499999999993
    vertex 150.350767986296 134.598813202917 33.0499999999993
  endloop
endfacet
facet normal 0.0 0.0 -1.0
  outer loop
    vertex 150.350767986296 134.598813202917 33.0499999999993
    vertex 149.479447642736 136.720133546476 33.0499999999993
    vertex 150.100767986296 137.19688941427 33.0499999999993
  endloop
endfacet
facet normal 0.0 0.0 -1.0
  outer loop
    vertex 154.600767986296 131.598813202917 33.0499999999993
    vertex 150.975767986296 133.516281448186 33.0499999999993
    vertex 151.277244179918 133.391405920055 33.0499999999993
  endloop
endfacet
facet normal 0.0 0.0 -1.0
  outer loop
    vertex 154.600767986296 131.598813202917 33.0499999999993
    vertex 151.277244179918 133.391405920055 33.0499999999993
    vertex 151.600767986296 133.348813202917 33.0499999999993
  endloop
endfacet
facet normal 0.0 0.0 -1.0
  outer loop
    vertex 154.600767986296 131.598813202917 33.0499999999993
    vertex 151.600767986296 133.348813202917 33.0499999999993
    vertex 151.924291792674 133.391405920055 33.0499999999993
  endloop
endfacet
facet normal 0.0 0.0 -1.0
  outer loop
    vertex 154.600767986296 131.598813202917 33.0499999999993
    vertex 151.924291792674 133.391405920055 33.0499999999993
    vertex 152.225767986296 133.516281448186 33.0499999999993
  endloop
endfacet
facet normal 0.0 0.0 -1.0
  outer loop
    vertex 154.600767986296 131.598813202917 33.0499999999993
    vertex 152.225767986296 133.516281448186 33.0499999999993
    vertex 152.484651462779 133.714929726434 33.0499999999993
  endloop
endfacet
facet normal 0.0 0.0 -1.0
  outer loop
    vertex 154.600767986296 131.598813202917 33.0499999999993
    vertex 152.484651462779 133.714929726434 33.0499999999993
    vertex 152.683299741027 133.973813202917 33.0499999999993
  endloop
endfacet
facet normal 0.0 0.0 -1.0
  outer loop
    vertex 154.600767986296 131.598813202917 33.0499999999993
    vertex 152.683299741027 133.973813202917 33.0499999999993
    vertex 152.808175269157 134.275289396538 33.0499999999993
  endloop
endfacet
facet normal 0.0 0.0 -1.0
  outer loop
    vertex 154.600767986296 131.598813202917 33.0499999999993
    vertex 152.808175269157 134.275289396538 33.0499999999993
    vertex 152.850767986296 134.598813202917 33.0499999999993
  endloop
endfacet
facet normal 0.0 0.0 -1.0
  outer loop
    vertex 154.600767986296 131.598813202917 33.0499999999993
    vertex 152.850767986296 134.598813202917 33.0499999999993
    vertex 153.100767986296 137.19688941427 33.0499999999993
  endloop
endfacet
facet normal 0.0 0.0 -1.0
  outer loop
    vertex 154.600767986296 131.598813202917 33.0499999999993
    vertex 153.100767986296 137.19688941427 33.0499999999993
    vertex 153.722088329856 136.720133546476 33.0499999999993
  endloop
endfacet
facet normal 0.0 0.0 -1.0
  outer loop
    vertex 154.600767986296 131.598813202917 33.0499999999993
    vertex 153.722088329856 136.720133546476 33.0499999999993
    vertex 154.198844197649 136.098813202917 33.0499999999993
  endloop
endfacet
facet normal 0.0 0.0 -1.0
  outer loop
    vertex 154.600767986296 131.598813202917 33.0499999999993
    vertex 154.198844197649 136.098813202917 33.0499999999993
    vertex 154.498545465163 135.375270338224 33.0499999999993
  endloop
endfacet
facet normal 0.0 0.0 -1.0
  outer loop
    vertex 154.600767986296 131.598813202917 33.0499999999993
    vertex 154.498545465163 135.375270338224 33.0499999999993
    vertex 154.600767986296 134.598813202917 33.0499999999993
  endloop
endfacet
facet normal 0.888038764301249 0.459768586463137 0.0
  outer loop
    vertex 195.377357684042 138.716951296533 30.5499999999993
    vertex 195.696608273881 138.100321740598 39.5499999999993
    vertex 195.696608273881 138.100321740598 30.5499999999993
  endloop
endfacet
facet normal 0.888038764301249 0.459768586463137 0.0
  outer loop
    vertex 195.696608273881 138.100321740598 39.5499999999993
    vertex 195.377357684042 138.716951296533 30.5499999999993
    vertex 195.377357684042 138.716951296533 39.5499999999993
  endloop
endfacet
facet normal 0.976776443700944 0.214261006790637 0.0
  outer loop
    vertex 195.696608273881 138.100321740598 30.5499999999993
    vertex 195.845385190816 137.422075194456 39.5499999999993
    vertex 195.845385190816 137.422075194456 30.5499999999993
  endloop
endfacet
facet normal 0.976776443700944 0.214261006790637 0.0
  outer loop
    vertex 195.845385190816 137.422075194456 39.5499999999993
    vertex 195.696608273881 138.100321740598 30.5499999999993
    vertex 195.696608273881 138.100321740598 39.5499999999993
  endloop
endfacet
facet normal 0.998948422661792 -0.0458481064114781 0.0
  outer loop
    vertex 195.845385190816 137.422075194456 30.5499999999993
    vertex 195.813549533823 136.728433039372 39.5499999999993
    vertex 195.813549533823 136.728433039372 30.5499999999993
  endloop
endfacet
facet normal 0.998948422661792 -0.0458481064114781 0.0
  outer loop
    vertex 195.813549533823 136.728433039372 39.5499999999993
    vertex 195.845385190816 137.422075194456 30.5499999999993
    vertex 195.845385190816 137.422075194456 39.5499999999993
  endloop
endfacet
facet normal 0.953043717458556 -0.302832746929351 0.0
  outer loop
    vertex 195.813549533823 136.728433039372 30.5499999999993
    vertex 195.603270850315 136.066665841917 39.5499999999993
    vertex 195.603270850315 136.066665841917 30.5499999999993
  endloop
endfacet
facet normal 0.953043717458556 -0.302832746929351 0.0
  outer loop
    vertex 195.603270850315 136.066665841917 39.5499999999993
    vertex 195.813549533823 136.728433039372 30.5499999999993
    vertex 195.813549533823 136.728433039372 39.5499999999993
  endloop
endfacet
facet normal 0.842190657889755 -0.539179836198668 0.0
  outer loop
    vertex 195.603270850315 136.066665841917 30.5499999999993
    vertex 195.22887928507 135.481871942975 39.5499999999993
    vertex 195.22887928507 135.481871942975 30.5499999999993
  endloop
endfacet
facet normal 0.842190657889755 -0.539179836198668 0.0
  outer loop
    vertex 195.22887928507 135.481871942975 39.5499999999993
    vertex 195.603270850315 136.066665841917 30.5499999999993
    vertex 195.603270850315 136.066665841917 39.5499999999993
  endloop
endfacet
facet normal 0.67394369677162 -0.738782710667895 0.0
  outer loop
    vertex 195.22887928507 135.481871942975 39.5499999999993
    vertex 194.71588900455 135.013904080341 30.5499999999993
    vertex 195.22887928507 135.481871942975 30.5499999999993
  endloop
endfacet
facet normal 0.67394369677162 -0.738782710667895 0.0
  outer loop
    vertex 194.71588900455 135.013904080341 30.5499999999993
    vertex 195.22887928507 135.481871942975 39.5499999999993
    vertex 194.71588900455 135.013904080341 39.5499999999993
  endloop
endfacet
facet normal 0.459768586463165 -0.888038764301235 -8.87995125645997e-030
  outer loop
    vertex 194.71588900455 135.013904080341 39.5499999999993
    vertex 194.099259448615 134.694653490502 30.5499999999993
    vertex 194.71588900455 135.013904080341 30.5499999999993
  endloop
endfacet
facet normal 0.459768586463165 -0.888038764301235 -8.87995125645997e-030
  outer loop
    vertex 194.099259448615 134.694653490502 30.5499999999993
    vertex 194.71588900455 135.013904080341 39.5499999999993
    vertex 194.099259448615 134.694653490502 39.5499999999993
  endloop
endfacet
facet normal -0.214261006790637 0.976776443700944 -6.43543545270283e-030
  outer loop
    vertex 192.290940023785 139.697670565864 39.5499999999993
    vertex 192.969186569927 139.846447482799 30.5499999999993
    vertex 192.290940023785 139.697670565864 30.5499999999993
  endloop
endfacet
facet normal -0.214261006790637 0.976776443700944 -6.43543545270283e-030
  outer loop
    vertex 192.969186569927 139.846447482799 30.5499999999993
    vertex 192.290940023785 139.697670565864 39.5499999999993
    vertex 192.969186569927 139.846447482799 39.5499999999993
  endloop
endfacet
facet normal 0.0458481064114781 0.998948422661792 0.0
  outer loop
    vertex 192.969186569927 139.846447482799 39.5499999999993
    vertex 193.662828725011 139.814611825806 30.5499999999993
    vertex 192.969186569927 139.846447482799 30.5499999999993
  endloop
endfacet
facet normal 0.0458481064114781 0.998948422661792 0.0
  outer loop
    vertex 193.662828725011 139.814611825806 30.5499999999993
    vertex 192.969186569927 139.846447482799 39.5499999999993
    vertex 193.662828725011 139.814611825806 39.5499999999993
  endloop
endfacet
facet normal 0.302832746929351 0.953043717458556 0.0
  outer loop
    vertex 193.662828725011 139.814611825806 39.5499999999993
    vertex 194.324595922466 139.604333142298 30.5499999999993
    vertex 193.662828725011 139.814611825806 30.5499999999993
  endloop
endfacet
facet normal 0.302832746929351 0.953043717458556 0.0
  outer loop
    vertex 194.324595922466 139.604333142298 30.5499999999993
    vertex 193.662828725011 139.814611825806 39.5499999999993
    vertex 194.324595922466 139.604333142298 39.5499999999993
  endloop
endfacet
facet normal 0.539179836198668 0.842190657889755 0.0
  outer loop
    vertex 194.324595922466 139.604333142298 39.5499999999993
    vertex 194.909389821408 139.229941577053 30.5499999999993
    vertex 194.324595922466 139.604333142298 30.5499999999993
  endloop
endfacet
facet normal 0.539179836198668 0.842190657889755 0.0
  outer loop
    vertex 194.909389821408 139.229941577053 30.5499999999993
    vertex 194.324595922466 139.604333142298 39.5499999999993
    vertex 194.909389821408 139.229941577053 39.5499999999993
  endloop
endfacet
facet normal 0.738782710667895 0.67394369677162 0.0
  outer loop
    vertex 194.909389821408 139.229941577053 30.5499999999993
    vertex 195.377357684042 138.716951296533 39.5499999999993
    vertex 195.377357684042 138.716951296533 30.5499999999993
  endloop
endfacet
facet normal 0.738782710667895 0.67394369677162 0.0
  outer loop
    vertex 195.377357684042 138.716951296533 39.5499999999993
    vertex 194.909389821408 139.229941577053 30.5499999999993
    vertex 194.909389821408 139.229941577053 39.5499999999993
  endloop
endfacet
facet normal -2.92419815506735e-015 -1.0 0.0
  outer loop
    vertex 171.700767986296 126.598813202917 39.5499999999993
    vertex 163.800767986296 126.598813202917 30.5499999999993
    vertex 171.700767986296 126.598813202917 30.5499999999993
  endloop
endfacet
facet normal -2.92419815506735e-015 -1.0 0.0
  outer loop
    vertex 163.800767986296 126.598813202917 30.5499999999993
    vertex 171.700767986296 126.598813202917 39.5499999999993
    vertex 163.800767986296 126.598813202917 39.5499999999993
  endloop
endfacet
facet normal -0.447213595499951 0.894427190999919 0.0
  outer loop
    vertex 163.600767986296 131.598813202917 39.5499999999993
    vertex 168.600767986296 134.098813202917 30.5499999999993
    vertex 163.600767986296 131.598813202917 30.5499999999993
  endloop
endfacet
facet normal -0.447213595499951 0.894427190999919 0.0
  outer loop
    vertex 168.600767986296 134.098813202917 30.5499999999993
    vertex 163.600767986296 131.598813202917 39.5499999999993
    vertex 168.600767986296 134.098813202917 39.5499999999993
  endloop
endfacet
facet normal -7.99022627145894e-030 1.0 6.19206495928703e-015
  outer loop
    vertex 148.600767986296 131.598813202917 39.5499999999993
    vertex 154.600767986296 131.598813202917 37.0499999999994
    vertex 148.600767986296 131.598813202917 37.0499999999994
  endloop
endfacet
facet normal -7.99022627145894e-030 1.0 6.19206495928703e-015
  outer loop
    vertex 148.600767986296 131.598813202917 33.0499999999993
    vertex 163.600767986296 131.598813202917 30.5499999999993
    vertex 148.600767986296 131.598813202917 30.5499999999993
  endloop
endfacet
facet normal -7.99022627145894e-030 1.0 6.19206495928703e-015
  outer loop
    vertex 163.600767986296 131.598813202917 30.5499999999993
    vertex 148.600767986296 131.598813202917 33.0499999999993
    vertex 154.600767986296 131.598813202917 33.0499999999993
  endloop
endfacet
facet normal -7.99022627145894e-030 1.0 6.19206495928703e-015
  outer loop
    vertex 163.600767986296 131.598813202917 30.5499999999993
    vertex 154.600767986296 131.598813202917 33.0499999999993
    vertex 163.600767986296 131.598813202917 39.5499999999993
  endloop
endfacet
facet normal -7.99022627145894e-030 1.0 6.19206495928703e-015
  outer loop
    vertex 163.600767986296 131.598813202917 39.5499999999993
    vertex 154.600767986296 131.598813202917 33.0499999999993
    vertex 154.600767986296 131.598813202917 37.0499999999994
  endloop
endfacet
facet normal -7.99022627145894e-030 1.0 6.19206495928703e-015
  outer loop
    vertex 163.600767986296 131.598813202917 39.5499999999993
    vertex 154.600767986296 131.598813202917 37.0499999999994
    vertex 148.600767986296 131.598813202917 39.5499999999993
  endloop
endfacet
facet normal 0.0 0.0 1.0
  outer loop
    vertex 156.900767986296 126.598813202916 39.5499999999993
    vertex 148.600767986296 131.598813202917 39.5499999999993
    vertex 148.600767986296 126.598813202917 39.5499999999993
  endloop
endfacet
facet normal 0.0 0.0 1.0
  outer loop
    vertex 148.600767986296 131.598813202917 39.5499999999993
    vertex 156.900767986296 126.598813202916 39.5499999999993
    vertex 163.600767986296 131.598813202917 39.5499999999993
  endloop
endfacet
facet normal 0.0 0.0 1.0
  outer loop
    vertex 163.600767986296 131.598813202917 39.5499999999993
    vertex 156.900767986296 126.598813202916 39.5499999999993
    vertex 158.300767986296 119.598813202916 39.5499999999993
  endloop
endfacet
facet normal 0.0 0.0 1.0
  outer loop
    vertex 163.600767986296 131.598813202917 39.5499999999993
    vertex 158.300767986296 119.598813202916 39.5499999999993
    vertex 160.100767986296 119.598813202916 39.5499999999993
  endloop
endfacet
facet normal 0.0 0.0 1.0
  outer loop
    vertex 163.600767986296 131.598813202917 39.5499999999993
    vertex 160.100767986296 119.598813202916 39.5499999999993
    vertex 163.800767986296 126.598813202917 39.5499999999993
  endloop
endfacet
facet normal 0.0 0.0 1.0
  outer loop
    vertex 163.600767986296 131.598813202917 39.5499999999993
    vertex 163.800767986296 126.598813202917 39.5499999999993
    vertex 168.600767986296 134.098813202917 39.5499999999993
  endloop
endfacet
facet normal 0.0 0.0 1.0
  outer loop
    vertex 168.600767986296 134.098813202917 39.5499999999993
    vertex 163.800767986296 126.598813202917 39.5499999999993
    vertex 168.900767986296 130.598813202917 39.5499999999993
  endloop
endfacet
facet normal 0.0 0.0 1.0
  outer loop
    vertex 168.900767986296 130.598813202917 39.5499999999993
    vertex 163.800767986296 126.598813202917 39.5499999999993
    vertex 168.958694081605 130.158820826242 39.5499999999993
  endloop
endfacet
facet normal 0.0 0.0 1.0
  outer loop
    vertex 168.958694081605 130.158820826242 39.5499999999993
    vertex 163.800767986296 126.598813202917 39.5499999999993
    vertex 169.128524799863 129.748813202917 39.5499999999993
  endloop
endfacet
facet normal 0.0 0.0 1.0
  outer loop
    vertex 169.128524799863 129.748813202917 39.5499999999993
    vertex 163.800767986296 126.598813202917 39.5499999999993
    vertex 169.398686458279 129.396731674899 39.5499999999993
  endloop
endfacet
facet normal 0.0 0.0 1.0
  outer loop
    vertex 169.398686458279 129.396731674899 39.5499999999993
    vertex 163.800767986296 126.598813202917 39.5499999999993
    vertex 171.700767986296 126.598813202917 39.5499999999993
  endloop
endfacet
facet normal 0.0 0.0 1.0
  outer loop
    vertex 169.398686458279 129.396731674899 39.5499999999993
    vertex 171.700767986296 126.598813202917 39.5499999999993
    vertex 169.750767986296 129.126570016483 39.5499999999993
  endloop
endfacet
facet normal 0.0 0.0 1.0
  outer loop
    vertex 169.750767986296 129.126570016483 39.5499999999993
    vertex 171.700767986296 126.598813202917 39.5499999999993
    vertex 170.160775609622 128.956739298225 39.5499999999993
  endloop
endfacet
facet normal 0.0 0.0 1.0
  outer loop
    vertex 170.160775609622 128.956739298225 39.5499999999993
    vertex 171.700767986296 126.598813202917 39.5499999999993
    vertex 170.600767986296 128.898813202917 39.5499999999993
  endloop
endfacet
facet normal 0.0 0.0 1.0
  outer loop
    vertex 170.600767986296 128.898813202917 39.5499999999993
    vertex 171.700767986296 126.598813202917 39.5499999999993
    vertex 171.04076036297 128.956739298225 39.5499999999993
  endloop
endfacet
facet normal 0.0 0.0 1.0
  outer loop
    vertex 171.04076036297 128.956739298225 39.5499999999993
    vertex 171.700767986296 126.598813202917 39.5499999999993
    vertex 171.450767986296 129.126570016483 39.5499999999993
  endloop
endfacet
facet normal 0.0 0.0 1.0
  outer loop
    vertex 171.450767986296 129.126570016483 39.5499999999993
    vertex 171.700767986296 126.598813202917 39.5499999999993
    vertex 171.802849514313 129.396731674899 39.5499999999993
  endloop
endfacet
facet normal 0.0 0.0 1.0
  outer loop
    vertex 171.802849514313 129.396731674899 39.5499999999993
    vertex 171.700767986296 126.598813202917 39.5499999999993
    vertex 194.099259448615 134.694653490502 39.5499999999993
  endloop
endfacet
facet normal 0.0 0.0 1.0
  outer loop
    vertex 171.802849514313 129.396731674899 39.5499999999993
    vertex 194.099259448615 134.694653490502 39.5499999999993
    vertex 172.07301117273 129.748813202917 39.5499999999993
  endloop
endfacet
facet normal 0.0 0.0 1.0
  outer loop
    vertex 172.07301117273 129.748813202917 39.5499999999993
    vertex 194.099259448615 134.694653490502 39.5499999999993
    vertex 172.242841890988 130.158820826242 39.5499999999993
  endloop
endfacet
facet normal 0.0 0.0 1.0
  outer loop
    vertex 172.242841890988 130.158820826242 39.5499999999993
    vertex 194.099259448615 134.694653490502 39.5499999999993
    vertex 172.300767986296 130.598813202917 39.5499999999993
  endloop
endfacet
facet normal 0.0 0.0 1.0
  outer loop
    vertex 172.300767986296 130.598813202917 39.5499999999993
    vertex 194.099259448615 134.694653490502 39.5499999999993
    vertex 176.800767986296 134.098813202917 39.5499999999993
  endloop
endfacet
facet normal 0.0 0.0 1.0
  outer loop
    vertex 176.800767986296 134.098813202917 39.5499999999993
    vertex 194.099259448615 134.694653490502 39.5499999999993
    vertex 192.290940023785 139.697670565864 39.5499999999993
  endloop
endfacet
facet normal 0.0 0.0 1.0
  outer loop
    vertex 192.290940023785 139.697670565864 39.5499999999993
    vertex 194.099259448615 134.694653490502 39.5499999999993
    vertex 192.969186569927 139.846447482799 39.5499999999993
  endloop
endfacet
facet normal 0.0 0.0 1.0
  outer loop
    vertex 192.969186569927 139.846447482799 39.5499999999993
    vertex 194.099259448615 134.694653490502 39.5499999999993
    vertex 193.662828725011 139.814611825806 39.5499999999993
  endloop
endfacet
facet normal 0.0 0.0 1.0
  outer loop
    vertex 193.662828725011 139.814611825806 39.5499999999993
    vertex 194.099259448615 134.694653490502 39.5499999999993
    vertex 194.324595922466 139.604333142298 39.5499999999993
  endloop
endfacet
facet normal 0.0 0.0 1.0
  outer loop
    vertex 194.324595922466 139.604333142298 39.5499999999993
    vertex 194.099259448615 134.694653490502 39.5499999999993
    vertex 194.71588900455 135.013904080341 39.5499999999993
  endloop
endfacet
facet normal 0.0 0.0 1.0
  outer loop
    vertex 194.324595922466 139.604333142298 39.5499999999993
    vertex 194.71588900455 135.013904080341 39.5499999999993
    vertex 194.909389821408 139.229941577053 39.5499999999993
  endloop
endfacet
facet normal 0.0 0.0 1.0
  outer loop
    vertex 194.909389821408 139.229941577053 39.5499999999993
    vertex 194.71588900455 135.013904080341 39.5499999999993
    vertex 195.22887928507 135.481871942975 39.5499999999993
  endloop
endfacet
facet normal 0.0 0.0 1.0
  outer loop
    vertex 194.909389821408 139.229941577053 39.5499999999993
    vertex 195.22887928507 135.481871942975 39.5499999999993
    vertex 195.377357684042 138.716951296533 39.5499999999993
  endloop
endfacet
facet normal 0.0 0.0 1.0
  outer loop
    vertex 195.377357684042 138.716951296533 39.5499999999993
    vertex 195.22887928507 135.481871942975 39.5499999999993
    vertex 195.603270850315 136.066665841917 39.5499999999993
  endloop
endfacet
facet normal 0.0 0.0 1.0
  outer loop
    vertex 195.377357684042 138.716951296533 39.5499999999993
    vertex 195.603270850315 136.066665841917 39.5499999999993
    vertex 195.696608273881 138.100321740598 39.5499999999993
  endloop
endfacet
facet normal 0.0 0.0 1.0
  outer loop
    vertex 195.696608273881 138.100321740598 39.5499999999993
    vertex 195.603270850315 136.066665841917 39.5499999999993
    vertex 195.813549533823 136.728433039372 39.5499999999993
  endloop
endfacet
facet normal 0.0 0.0 1.0
  outer loop
    vertex 195.696608273881 138.100321740598 39.5499999999993
    vertex 195.813549533823 136.728433039372 39.5499999999993
    vertex 195.845385190816 137.422075194456 39.5499999999993
  endloop
endfacet
facet normal 0.0 0.0 1.0
  outer loop
    vertex 168.600767986296 134.098813202917 39.5499999999993
    vertex 170.160775609622 132.240887107608 39.5499999999993
    vertex 176.800767986296 134.098813202917 39.5499999999993
  endloop
endfacet
facet normal 0.0 0.0 1.0
  outer loop
    vertex 170.160775609622 132.240887107608 39.5499999999993
    vertex 168.600767986296 134.098813202917 39.5499999999993
    vertex 169.750767986296 132.07105638935 39.5499999999993
  endloop
endfacet
facet normal 0.0 0.0 1.0
  outer loop
    vertex 169.750767986296 132.07105638935 39.5499999999993
    vertex 168.600767986296 134.098813202917 39.5499999999993
    vertex 169.398686458279 131.800894730934 39.5499999999993
  endloop
endfacet
facet normal 0.0 0.0 1.0
  outer loop
    vertex 169.398686458279 131.800894730934 39.5499999999993
    vertex 168.600767986296 134.098813202917 39.5499999999993
    vertex 169.128524799863 131.448813202917 39.5499999999993
  endloop
endfacet
facet normal 0.0 0.0 1.0
  outer loop
    vertex 169.128524799863 131.448813202917 39.5499999999993
    vertex 168.600767986296 134.098813202917 39.5499999999993
    vertex 168.958694081605 131.038805579591 39.5499999999993
  endloop
endfacet
facet normal 0.0 0.0 1.0
  outer loop
    vertex 168.958694081605 131.038805579591 39.5499999999993
    vertex 168.600767986296 134.098813202917 39.5499999999993
    vertex 168.900767986296 130.598813202917 39.5499999999993
  endloop
endfacet
facet normal 0.0 0.0 1.0
  outer loop
    vertex 176.800767986296 134.098813202917 39.5499999999993
    vertex 170.160775609622 132.240887107608 39.5499999999993
    vertex 170.600767986296 132.298813202917 39.5499999999993
  endloop
endfacet
facet normal 0.0 0.0 1.0
  outer loop
    vertex 176.800767986296 134.098813202917 39.5499999999993
    vertex 170.600767986296 132.298813202917 39.5499999999993
    vertex 171.04076036297 132.240887107608 39.5499999999993
  endloop
endfacet
facet normal 0.0 0.0 1.0
  outer loop
    vertex 176.800767986296 134.098813202917 39.5499999999993
    vertex 171.04076036297 132.240887107608 39.5499999999993
    vertex 171.450767986296 132.07105638935 39.5499999999993
  endloop
endfacet
facet normal 0.0 0.0 1.0
  outer loop
    vertex 176.800767986296 134.098813202917 39.5499999999993
    vertex 171.450767986296 132.07105638935 39.5499999999993
    vertex 171.802849514313 131.800894730934 39.5499999999993
  endloop
endfacet
facet normal 0.0 0.0 1.0
  outer loop
    vertex 176.800767986296 134.098813202917 39.5499999999993
    vertex 171.802849514313 131.800894730934 39.5499999999993
    vertex 172.07301117273 131.448813202917 39.5499999999993
  endloop
endfacet
facet normal 0.0 0.0 1.0
  outer loop
    vertex 176.800767986296 134.098813202917 39.5499999999993
    vertex 172.07301117273 131.448813202917 39.5499999999993
    vertex 172.242841890988 131.038805579591 39.5499999999993
  endloop
endfacet
facet normal 0.0 0.0 1.0
  outer loop
    vertex 176.800767986296 134.098813202917 39.5499999999993
    vertex 172.242841890988 131.038805579591 39.5499999999993
    vertex 172.300767986296 130.598813202917 39.5499999999993
  endloop
endfacet
facet normal 0.0 0.0 -1.0
  outer loop
    vertex 168.600767986296 134.098813202917 30.5499999999993
    vertex 168.958694081605 131.038805579591 30.5499999999993
    vertex 168.900767986296 130.598813202917 30.5499999999993
  endloop
endfacet
facet normal 0.0 0.0 -1.0
  outer loop
    vertex 168.958694081605 131.038805579591 30.5499999999993
    vertex 168.600767986296 134.098813202917 30.5499999999993
    vertex 169.128524799863 131.448813202917 30.5499999999993
  endloop
endfacet
facet normal 0.0 0.0 -1.0
  outer loop
    vertex 169.128524799863 131.448813202917 30.5499999999993
    vertex 168.600767986296 134.098813202917 30.5499999999993
    vertex 169.398686458279 131.800894730934 30.5499999999993
  endloop
endfacet
facet normal 0.0 0.0 -1.0
  outer loop
    vertex 169.398686458279 131.800894730934 30.5499999999993
    vertex 168.600767986296 134.098813202917 30.5499999999993
    vertex 169.750767986296 132.07105638935 30.5499999999993
  endloop
endfacet
facet normal 0.0 0.0 -1.0
  outer loop
    vertex 169.750767986296 132.07105638935 30.5499999999993
    vertex 168.600767986296 134.098813202917 30.5499999999993
    vertex 170.160775609622 132.240887107608 30.5499999999993
  endloop
endfacet
facet normal 0.0 0.0 -1.0
  outer loop
    vertex 170.160775609622 132.240887107608 30.5499999999993
    vertex 168.600767986296 134.098813202917 30.5499999999993
    vertex 176.800767986296 134.098813202917 30.5499999999993
  endloop
endfacet
facet normal 0.0 0.0 -1.0
  outer loop
    vertex 170.160775609622 132.240887107608 30.5499999999993
    vertex 176.800767986296 134.098813202917 30.5499999999993
    vertex 170.600767986296 132.298813202917 30.5499999999993
  endloop
endfacet
facet normal 0.0 0.0 -1.0
  outer loop
    vertex 170.600767986296 132.298813202917 30.5499999999993
    vertex 176.800767986296 134.098813202917 30.5499999999993
    vertex 171.04076036297 132.240887107608 30.5499999999993
  endloop
endfacet
facet normal 0.0 0.0 -1.0
  outer loop
    vertex 171.04076036297 132.240887107608 30.5499999999993
    vertex 176.800767986296 134.098813202917 30.5499999999993
    vertex 171.450767986296 132.07105638935 30.5499999999993
  endloop
endfacet
facet normal 0.0 0.0 -1.0
  outer loop
    vertex 171.450767986296 132.07105638935 30.5499999999993
    vertex 176.800767986296 134.098813202917 30.5499999999993
    vertex 171.802849514313 131.800894730934 30.5499999999993
  endloop
endfacet
facet normal 0.0 0.0 -1.0
  outer loop
    vertex 171.802849514313 131.800894730934 30.5499999999993
    vertex 176.800767986296 134.098813202917 30.5499999999993
    vertex 172.07301117273 131.448813202917 30.5499999999993
  endloop
endfacet
facet normal 0.0 0.0 -1.0
  outer loop
    vertex 172.07301117273 131.448813202917 30.5499999999993
    vertex 176.800767986296 134.098813202917 30.5499999999993
    vertex 172.242841890988 131.038805579591 30.5499999999993
  endloop
endfacet
facet normal 0.0 0.0 -1.0
  outer loop
    vertex 172.242841890988 131.038805579591 30.5499999999993
    vertex 176.800767986296 134.098813202917 30.5499999999993
    vertex 172.300767986296 130.598813202917 30.5499999999993
  endloop
endfacet
facet normal 0.0 0.0 -1.0
  outer loop
    vertex 148.600767986296 131.598813202917 30.5499999999993
    vertex 156.900767986296 126.598813202916 30.5499999999993
    vertex 148.600767986296 126.598813202917 30.5499999999993
  endloop
endfacet
facet normal 0.0 0.0 -1.0
  outer loop
    vertex 156.900767986296 126.598813202916 30.5499999999993
    vertex 148.600767986296 131.598813202917 30.5499999999993
    vertex 163.600767986296 131.598813202917 30.5499999999993
  endloop
endfacet
facet normal 0.0 0.0 -1.0
  outer loop
    vertex 156.900767986296 126.598813202916 30.5499999999993
    vertex 163.600767986296 131.598813202917 30.5499999999993
    vertex 158.300767986296 119.598813202916 30.5499999999993
  endloop
endfacet
facet normal 0.0 0.0 -1.0
  outer loop
    vertex 158.300767986296 119.598813202916 30.5499999999993
    vertex 163.600767986296 131.598813202917 30.5499999999993
    vertex 160.100767986296 119.598813202916 30.5499999999993
  endloop
endfacet
facet normal 0.0 0.0 -1.0
  outer loop
    vertex 160.100767986296 119.598813202916 30.5499999999993
    vertex 163.600767986296 131.598813202917 30.5499999999993
    vertex 163.800767986296 126.598813202917 30.5499999999993
  endloop
endfacet
facet normal 0.0 0.0 -1.0
  outer loop
    vertex 163.800767986296 126.598813202917 30.5499999999993
    vertex 163.600767986296 131.598813202917 30.5499999999993
    vertex 168.600767986296 134.098813202917 30.5499999999993
  endloop
endfacet
facet normal 0.0 0.0 -1.0
  outer loop
    vertex 163.800767986296 126.598813202917 30.5499999999993
    vertex 168.600767986296 134.098813202917 30.5499999999993
    vertex 168.900767986296 130.598813202917 30.5499999999993
  endloop
endfacet
facet normal 0.0 0.0 -1.0
  outer loop
    vertex 163.800767986296 126.598813202917 30.5499999999993
    vertex 168.900767986296 130.598813202917 30.5499999999993
    vertex 168.958694081605 130.158820826242 30.5499999999993
  endloop
endfacet
facet normal 0.0 0.0 -1.0
  outer loop
    vertex 163.800767986296 126.598813202917 30.5499999999993
    vertex 168.958694081605 130.158820826242 30.5499999999993
    vertex 169.128524799863 129.748813202917 30.5499999999993
  endloop
endfacet
facet normal 0.0 0.0 -1.0
  outer loop
    vertex 163.800767986296 126.598813202917 30.5499999999993
    vertex 169.128524799863 129.748813202917 30.5499999999993
    vertex 169.398686458279 129.396731674899 30.5499999999993
  endloop
endfacet
facet normal 0.0 0.0 -1.0
  outer loop
    vertex 163.800767986296 126.598813202917 30.5499999999993
    vertex 169.398686458279 129.396731674899 30.5499999999993
    vertex 171.700767986296 126.598813202917 30.5499999999993
  endloop
endfacet
facet normal 0.0 0.0 -1.0
  outer loop
    vertex 171.700767986296 126.598813202917 30.5499999999993
    vertex 169.398686458279 129.396731674899 30.5499999999993
    vertex 169.750767986296 129.126570016483 30.5499999999993
  endloop
endfacet
facet normal 0.0 0.0 -1.0
  outer loop
    vertex 171.700767986296 126.598813202917 30.5499999999993
    vertex 169.750767986296 129.126570016483 30.5499999999993
    vertex 170.160775609622 128.956739298225 30.5499999999993
  endloop
endfacet
facet normal 0.0 0.0 -1.0
  outer loop
    vertex 171.700767986296 126.598813202917 30.5499999999993
    vertex 170.160775609622 128.956739298225 30.5499999999993
    vertex 170.600767986296 128.898813202917 30.5499999999993
  endloop
endfacet
facet normal 0.0 0.0 -1.0
  outer loop
    vertex 171.700767986296 126.598813202917 30.5499999999993
    vertex 170.600767986296 128.898813202917 30.5499999999993
    vertex 171.04076036297 128.956739298225 30.5499999999993
  endloop
endfacet
facet normal 0.0 0.0 -1.0
  outer loop
    vertex 171.700767986296 126.598813202917 30.5499999999993
    vertex 171.04076036297 128.956739298225 30.5499999999993
    vertex 171.450767986296 129.126570016483 30.5499999999993
  endloop
endfacet
facet normal 0.0 0.0 -1.0
  outer loop
    vertex 171.700767986296 126.598813202917 30.5499999999993
    vertex 171.450767986296 129.126570016483 30.5499999999993
    vertex 171.802849514313 129.396731674899 30.5499999999993
  endloop
endfacet
facet normal 0.0 0.0 -1.0
  outer loop
    vertex 171.700767986296 126.598813202917 30.5499999999993
    vertex 171.802849514313 129.396731674899 30.5499999999993
    vertex 194.099259448615 134.694653490502 30.5499999999993
  endloop
endfacet
facet normal 0.0 0.0 -1.0
  outer loop
    vertex 194.099259448615 134.694653490502 30.5499999999993
    vertex 171.802849514313 129.396731674899 30.5499999999993
    vertex 172.07301117273 129.748813202917 30.5499999999993
  endloop
endfacet
facet normal 0.0 0.0 -1.0
  outer loop
    vertex 194.099259448615 134.694653490502 30.5499999999993
    vertex 172.07301117273 129.748813202917 30.5499999999993
    vertex 172.242841890988 130.158820826242 30.5499999999993
  endloop
endfacet
facet normal 0.0 0.0 -1.0
  outer loop
    vertex 194.099259448615 134.694653490502 30.5499999999993
    vertex 172.242841890988 130.158820826242 30.5499999999993
    vertex 172.300767986296 130.598813202917 30.5499999999993
  endloop
endfacet
facet normal 0.0 0.0 -1.0
  outer loop
    vertex 194.099259448615 134.694653490502 30.5499999999993
    vertex 172.300767986296 130.598813202917 30.5499999999993
    vertex 176.800767986296 134.098813202917 30.5499999999993
  endloop
endfacet
facet normal 0.0 0.0 -1.0
  outer loop
    vertex 194.099259448615 134.694653490502 30.5499999999993
    vertex 176.800767986296 134.098813202917 30.5499999999993
    vertex 192.290940023785 139.697670565864 30.5499999999993
  endloop
endfacet
facet normal 0.0 0.0 -1.0
  outer loop
    vertex 194.099259448615 134.694653490502 30.5499999999993
    vertex 192.290940023785 139.697670565864 30.5499999999993
    vertex 192.969186569927 139.846447482799 30.5499999999993
  endloop
endfacet
facet normal 0.0 0.0 -1.0
  outer loop
    vertex 194.099259448615 134.694653490502 30.5499999999993
    vertex 192.969186569927 139.846447482799 30.5499999999993
    vertex 193.662828725011 139.814611825806 30.5499999999993
  endloop
endfacet
facet normal 0.0 0.0 -1.0
  outer loop
    vertex 194.099259448615 134.694653490502 30.5499999999993
    vertex 193.662828725011 139.814611825806 30.5499999999993
    vertex 194.324595922466 139.604333142298 30.5499999999993
  endloop
endfacet
facet normal 0.0 0.0 -1.0
  outer loop
    vertex 194.099259448615 134.694653490502 30.5499999999993
    vertex 194.324595922466 139.604333142298 30.5499999999993
    vertex 194.71588900455 135.013904080341 30.5499999999993
  endloop
endfacet
facet normal 0.0 0.0 -1.0
  outer loop
    vertex 194.71588900455 135.013904080341 30.5499999999993
    vertex 194.324595922466 139.604333142298 30.5499999999993
    vertex 194.909389821408 139.229941577053 30.5499999999993
  endloop
endfacet
facet normal 0.0 0.0 -1.0
  outer loop
    vertex 194.71588900455 135.013904080341 30.5499999999993
    vertex 194.909389821408 139.229941577053 30.5499999999993
    vertex 195.22887928507 135.481871942975 30.5499999999993
  endloop
endfacet
facet normal 0.0 0.0 -1.0
  outer loop
    vertex 195.22887928507 135.481871942975 30.5499999999993
    vertex 194.909389821408 139.229941577053 30.5499999999993
    vertex 195.377357684042 138.716951296533 30.5499999999993
  endloop
endfacet
facet normal 0.0 0.0 -1.0
  outer loop
    vertex 195.22887928507 135.481871942975 30.5499999999993
    vertex 195.377357684042 138.716951296533 30.5499999999993
    vertex 195.603270850315 136.066665841917 30.5499999999993
  endloop
endfacet
facet normal 0.0 0.0 -1.0
  outer loop
    vertex 195.603270850315 136.066665841917 30.5499999999993
    vertex 195.377357684042 138.716951296533 30.5499999999993
    vertex 195.696608273881 138.100321740598 30.5499999999993
  endloop
endfacet
facet normal 0.0 0.0 -1.0
  outer loop
    vertex 195.603270850315 136.066665841917 30.5499999999993
    vertex 195.696608273881 138.100321740598 30.5499999999993
    vertex 195.813549533823 136.728433039372 30.5499999999993
  endloop
endfacet
facet normal 0.0 0.0 -1.0
  outer loop
    vertex 195.813549533823 136.728433039372 30.5499999999993
    vertex 195.696608273881 138.100321740598 30.5499999999993
    vertex 195.845385190816 137.422075194456 30.5499999999993
  endloop
endfacet
endsolid Board
