<?xml version="1.0"?>
<!DOCTYPE svg PUBLIC "-//W3C//DTD SVG 1.1//EN" "http://www.w3.org/Graphics/SVG/1.1/DTD/svg11.dtd">
<svg width="932.688mm" height="246.88799999999998mm" viewBox="0 0 932.688 246.88799999999998" xmlns="http://www.w3.org/2000/svg" version="1.1">
<g id="LinearPattern" transform="translate(9.144000,237.744000) scale(1,-1)">
<path id="LinearPattern_f0000"  d="M 914.4 0.0 L 0.0 0.0 L 0.0 0.0 L 914.4 0.0 L 914.4 0.0 Z " stroke="#191919" stroke-width="0.35 px" style="stroke-width:0.35;stroke-miterlimit:4;stroke-dasharray:none;stroke-linecap:square;fill:#cccccc;fill-opacity:1.0;fill-rule: evenodd"/>
<path id="LinearPattern_f0001"  d="M 0.0 0.0 L 0.0 228.59999999999997 L 0.0 228.59999999999997 L 0.0 0.0 L 0.0 0.0 Z " stroke="#191919" stroke-width="0.35 px" style="stroke-width:0.35;stroke-miterlimit:4;stroke-dasharray:none;stroke-linecap:square;fill:#cccccc;fill-opacity:1.0;fill-rule: evenodd"/>
<path id="LinearPattern_f0002"  d="M 914.4 228.59999999999997 L 914.4 0.0 L 914.4 0.0 L 914.4 228.59999999999997 L 914.4 228.59999999999997 Z " stroke="#191919" stroke-width="0.35 px" style="stroke-width:0.35;stroke-miterlimit:4;stroke-dasharray:none;stroke-linecap:square;fill:#cccccc;fill-opacity:1.0;fill-rule: evenodd"/>
<circle cx="114.5" cy="80.0" r="1.75" stroke="#191919" stroke-width="0.35 px" style="stroke-width:0.35;stroke-miterlimit:4;stroke-dasharray:none;stroke-linecap:square;fill:#cccccc"/>
<path id="LinearPattern_f0005"  d="M 0.0 228.59999999999997 L 914.4 228.59999999999997 L 914.4 228.59999999999997 L 0.0 228.59999999999997 L 0.0 228.59999999999997 Z " stroke="#191919" stroke-width="0.35 px" style="stroke-width:0.35;stroke-miterlimit:4;stroke-dasharray:none;stroke-linecap:square;fill:#cccccc;fill-opacity:1.0;fill-rule: evenodd"/>
<circle cx="114.5" cy="80.0" r="1.75" stroke="#191919" stroke-width="0.35 px" style="stroke-width:0.35;stroke-miterlimit:4;stroke-dasharray:none;stroke-linecap:square;fill:#cccccc"/>
<circle cx="153.5" cy="80.0" r="1.75" stroke="#191919" stroke-width="0.35 px" style="stroke-width:0.35;stroke-miterlimit:4;stroke-dasharray:none;stroke-linecap:square;fill:#cccccc"/>
<path id="LinearPattern_f0008"  d="M 217.57188093878153 107.68283129431222 L 217.57188093878153 107.68283129431222 A 15 15 0 0 0 228.69 122.152L 228.6895817440768 122.15158057273025 A 15 15 0 0 1 217.572 107.683Z " stroke="#191919" stroke-width="0.35 px" style="stroke-width:0.35;stroke-miterlimit:4;stroke-dasharray:none;stroke-linecap:square;fill:#cccccc;fill-opacity:1.0;fill-rule: evenodd"/>
<path id="LinearPattern_f0009"  d="M 243.17846913841927 126.0338662492696 L 228.6895817440768 122.15158057273025 L 228.6895817440768 122.15158057273025 L 243.17846913841927 126.0338662492696 L 243.17846913841927 126.0338662492696 Z " stroke="#191919" stroke-width="0.35 px" style="stroke-width:0.35;stroke-miterlimit:4;stroke-dasharray:none;stroke-linecap:square;fill:#cccccc;fill-opacity:1.0;fill-rule: evenodd"/>
<path id="LinearPattern_f0010"  d="M 242.88528118811553 13.211935451452202 L 242.88528118811553 13.211935451452202 A 188 188 0 0 0 217.572 107.683L 217.57188093878153 107.68283129431222 A 188 188 0 0 1 242.885 13.2119Z " stroke="#191919" stroke-width="0.35 px" style="stroke-width:0.35;stroke-miterlimit:4;stroke-dasharray:none;stroke-linecap:square;fill:#cccccc;fill-opacity:1.0;fill-rule: evenodd"/>
<path id="LinearPattern_f0011"  d="M 243.17846913841927 126.0338662492696 L 243.17846913841927 126.0338662492696 A 15 15 0 0 0 254.382 98.4529L 254.3817305660541 98.45287000830248 A 15 15 0 0 1 243.178 126.034Z " stroke="#191919" stroke-width="0.35 px" style="stroke-width:0.35;stroke-miterlimit:4;stroke-dasharray:none;stroke-linecap:square;fill:#cccccc;fill-opacity:1.0;fill-rule: evenodd"/>
<path id="LinearPattern_f0012"  d="M 268.84588177164625 28.24680217325541 L 268.84588177164625 28.24680217325541 A 15 15 0 0 0 242.885 13.2119L 242.88528118811553 13.211935451452202 A 15 15 0 1 1 268.846 28.2468Z " stroke="#191919" stroke-width="0.35 px" style="stroke-width:0.35;stroke-miterlimit:4;stroke-dasharray:none;stroke-linecap:square;fill:#cccccc;fill-opacity:1.0;fill-rule: evenodd"/>
<path id="LinearPattern_f0013"  d="M 248.83865074719034 87.46176653260196 A 11 11 0 0 0 254.382 98.4529L 254.3817305660541 98.45287000830248 A 11 11 0 0 1 248.839 87.4618L 248.8386507472212 87.46176653259991 Z " stroke="#191919" stroke-width="0.35 px" style="stroke-width:0.35;stroke-miterlimit:4;stroke-dasharray:none;stroke-linecap:square;fill:#cccccc;fill-opacity:1.0;fill-rule: evenodd"/>
<path id="LinearPattern_f0014"  d="M 268.84588177167825 28.246802173267298 A 158 158 0 0 0 248.839 87.4618L 248.8386507472212 87.46176653259991 A 158 158 0 0 1 268.846 28.2468L 268.84588177164625 28.24680217325541 Z " stroke="#191919" stroke-width="0.35 px" style="stroke-width:0.35;stroke-miterlimit:4;stroke-dasharray:none;stroke-linecap:square;fill:#cccccc;fill-opacity:1.0;fill-rule: evenodd"/>
<circle cx="167.07725" cy="83.071" r="1.75" stroke="#191919" stroke-width="0.35 px" style="stroke-width:0.35;stroke-miterlimit:4;stroke-dasharray:none;stroke-linecap:square;fill:#cccccc"/>
<circle cx="267.9" cy="84.0" r="1.75" stroke="#191919" stroke-width="0.35 px" style="stroke-width:0.35;stroke-miterlimit:4;stroke-dasharray:none;stroke-linecap:square;fill:#cccccc"/>
<circle cx="50.0" cy="100.0" r="1.75" stroke="#191919" stroke-width="0.35 px" style="stroke-width:0.35;stroke-miterlimit:4;stroke-dasharray:none;stroke-linecap:square;fill:#cccccc"/>
<circle cx="90.5" cy="100.0" r="1.75" stroke="#191919" stroke-width="0.35 px" style="stroke-width:0.35;stroke-miterlimit:4;stroke-dasharray:none;stroke-linecap:square;fill:#cccccc"/>
<circle cx="155.5" cy="124.00000000000003" r="1.75" stroke="#191919" stroke-width="0.35 px" style="stroke-width:0.35;stroke-miterlimit:4;stroke-dasharray:none;stroke-linecap:square;fill:#cccccc"/>
<circle cx="101.5" cy="134.0" r="1.75" stroke="#191919" stroke-width="0.35 px" style="stroke-width:0.35;stroke-miterlimit:4;stroke-dasharray:none;stroke-linecap:square;fill:#cccccc"/>
<circle cx="138.5" cy="136.00000000000003" r="1.75" stroke="#191919" stroke-width="0.35 px" style="stroke-width:0.35;stroke-miterlimit:4;stroke-dasharray:none;stroke-linecap:square;fill:#cccccc"/>
<circle cx="50.0" cy="172.0" r="1.75" stroke="#191919" stroke-width="0.35 px" style="stroke-width:0.35;stroke-miterlimit:4;stroke-dasharray:none;stroke-linecap:square;fill:#cccccc"/>
<circle cx="90.5" cy="172.0" r="1.75" stroke="#191919" stroke-width="0.35 px" style="stroke-width:0.35;stroke-miterlimit:4;stroke-dasharray:none;stroke-linecap:square;fill:#cccccc"/>
<path id="LinearPattern_f0024"  d="M 285.2004718875505 126.42322805592954 L 285.2004718875505 126.42322805592954 A 15 15 0 0 0 315.173 125.137L 315.1728786342191 125.1368246152253 A 15 15 0 0 1 285.2 126.423Z " stroke="#191919" stroke-width="0.35 px" style="stroke-width:0.35;stroke-miterlimit:4;stroke-dasharray:none;stroke-linecap:square;fill:#cccccc;fill-opacity:1.0;fill-rule: evenodd"/>
<path id="LinearPattern_f0025"  d="M 316.7257896205797 119.34127482117749 A 10 10 0 0 0 315.173 125.137L 315.1728786342191 125.1368246152253 A 10 10 0 0 1 316.726 119.341L 316.7257896205737 119.3412748211737 Z " stroke="#191919" stroke-width="0.35 px" style="stroke-width:0.35;stroke-miterlimit:4;stroke-dasharray:none;stroke-linecap:square;fill:#cccccc;fill-opacity:1.0;fill-rule: evenodd"/>
<path id="LinearPattern_f0026"  d="M 291.41212897001145 103.2410082249886 L 291.41212897001145 103.2410082249886 A 40 40 0 0 0 285.2 126.423L 285.2004718875505 126.42322805592954 A 40 40 0 0 1 291.412 103.241Z " stroke="#191919" stroke-width="0.35 px" style="stroke-width:0.35;stroke-miterlimit:4;stroke-dasharray:none;stroke-linecap:square;fill:#cccccc;fill-opacity:1.0;fill-rule: evenodd"/>
<path id="LinearPattern_f0027"  d="M 316.7257896205737 119.3412748211737 L 316.7257896205737 119.3412748211737 A 15 15 0 1 0 291.412 103.241L 291.41212897001145 103.2410082249886 A 15 15 0 1 1 316.726 119.341Z " stroke="#191919" stroke-width="0.35 px" style="stroke-width:0.35;stroke-miterlimit:4;stroke-dasharray:none;stroke-linecap:square;fill:#cccccc;fill-opacity:1.0;fill-rule: evenodd"/>
<circle cx="350.0" cy="120.0" r="1.75" stroke="#191919" stroke-width="0.35 px" style="stroke-width:0.35;stroke-miterlimit:4;stroke-dasharray:none;stroke-linecap:square;fill:#cccccc"/>
<circle cx="385.0" cy="120.0" r="1.75" stroke="#191919" stroke-width="0.35 px" style="stroke-width:0.35;stroke-miterlimit:4;stroke-dasharray:none;stroke-linecap:square;fill:#cccccc"/>
<circle cx="420.0" cy="120.0" r="1.75" stroke="#191919" stroke-width="0.35 px" style="stroke-width:0.35;stroke-miterlimit:4;stroke-dasharray:none;stroke-linecap:square;fill:#cccccc"/>
<circle cx="455.0" cy="120.0" r="1.75" stroke="#191919" stroke-width="0.35 px" style="stroke-width:0.35;stroke-miterlimit:4;stroke-dasharray:none;stroke-linecap:square;fill:#cccccc"/>
<circle cx="490.0" cy="120.0" r="1.75" stroke="#191919" stroke-width="0.35 px" style="stroke-width:0.35;stroke-miterlimit:4;stroke-dasharray:none;stroke-linecap:square;fill:#cccccc"/>
<circle cx="350.0" cy="170.0" r="1.75" stroke="#191919" stroke-width="0.35 px" style="stroke-width:0.35;stroke-miterlimit:4;stroke-dasharray:none;stroke-linecap:square;fill:#cccccc"/>
<circle cx="385.0" cy="170.0" r="1.75" stroke="#191919" stroke-width="0.35 px" style="stroke-width:0.35;stroke-miterlimit:4;stroke-dasharray:none;stroke-linecap:square;fill:#cccccc"/>
<circle cx="420.0" cy="170.0" r="1.75" stroke="#191919" stroke-width="0.35 px" style="stroke-width:0.35;stroke-miterlimit:4;stroke-dasharray:none;stroke-linecap:square;fill:#cccccc"/>
<circle cx="455.0" cy="170.0" r="1.75" stroke="#191919" stroke-width="0.35 px" style="stroke-width:0.35;stroke-miterlimit:4;stroke-dasharray:none;stroke-linecap:square;fill:#cccccc"/>
<circle cx="490.0" cy="170.0" r="1.75" stroke="#191919" stroke-width="0.35 px" style="stroke-width:0.35;stroke-miterlimit:4;stroke-dasharray:none;stroke-linecap:square;fill:#cccccc"/>
<title>b'LinearPattern'</title>
</g>
</svg>